<?xml version="1.0" encoding="UTF-8"?>
<svg version="1.1" xmlns="http://www.w3.org/2000/svg" width="444" height="260">
<path d="M0 0 C9.22092048 8.01228731 15.19771318 17.33134129 19.1875 28.8125 C19.80625 30.5140625 19.80625 30.5140625 20.4375 32.25 C23.20933348 45.41620902 21.78902771 57.94990104 18.1875 70.8125 C18.91203369 71.08271973 19.63656738 71.35293945 20.38305664 71.63134766 C23.13767739 72.79151612 25.52518284 74.13046556 28.05859375 75.7109375 C28.96287109 76.27296875 29.86714844 76.835 30.79882812 77.4140625 C31.73146484 77.99929687 32.66410156 78.58453125 33.625 79.1875 C35.0181543 80.05375 35.0181543 80.05375 36.43945312 80.9375 C37.34501953 81.50210938 38.25058594 82.06671875 39.18359375 82.6484375 C40.0535498 83.19081055 40.92350586 83.73318359 41.81982422 84.29199219 C43.80230538 85.56513022 45.69679257 86.89999278 47.59765625 88.2890625 C50.00118499 90.00902304 50.00118499 90.00902304 52.375 89.76171875 C54.4992315 88.64924407 55.63818284 87.45271008 57.1875 85.625 C65.66291085 76.80476515 77.22296753 73.8844004 89.0625 73.5 C102.31792952 73.80511219 112.79640867 78.7741086 123.1875 86.8125 C124.23550781 86.10222656 125.28351563 85.39195313 126.36328125 84.66015625 C127.74206439 83.73158801 129.12097743 82.80321262 130.5 81.875 C131.19029297 81.40642578 131.88058594 80.93785156 132.59179688 80.45507812 C133.25888672 80.00712891 133.92597656 79.55917969 134.61328125 79.09765625 C135.22598877 78.68394775 135.83869629 78.27023926 136.4699707 77.84399414 C138.1875 76.8125 138.1875 76.8125 141.1875 75.8125 C140.83816406 74.85988281 140.48882812 73.90726562 140.12890625 72.92578125 C139.66908334 71.65892221 139.20945838 70.3919913 138.75 69.125 C138.40485352 68.18624023 138.40485352 68.18624023 138.05273438 67.22851562 C132.71140675 52.44310147 134.11715977 37.09474719 140.1875 22.8125 C147.19788844 8.73834453 158.7000104 -1.4096731 173.5 -6.5 C188.41932716 -11.22080178 203.15026187 -10.12107184 217.3125 -3.5 C231.09501255 3.81464065 240.42902212 14.3116057 246.1875 28.8125 C251.26539897 46.05063071 249.68063373 61.57094823 241.22265625 77.53515625 C237.23891861 83.95042665 232.34842509 89.43170676 226.1875 93.8125 C226.8272363 98.04809773 228.28502133 101.46509203 230.12890625 105.3203125 C230.41603989 105.927612 230.70317352 106.5349115 230.99900818 107.16061401 C232.22044663 109.74370808 233.45475734 112.3205865 234.68823242 114.89794922 C235.58979688 116.78655699 236.48451723 118.6782988 237.37890625 120.5703125 C238.18630249 122.25858154 238.18630249 122.25858154 239.01000977 123.98095703 C240.1875 126.8125 240.1875 126.8125 240.1875 129.8125 C240.84234375 129.65652344 241.4971875 129.50054687 242.171875 129.33984375 C254.5243247 126.70535236 265.82886465 127.98361096 276.8515625 134.3515625 C287.14271418 141.1605118 294.35608241 150.11398315 297.5 162.1875 C300.06555571 176.19938121 297.13367723 189.0500666 289.1875 200.8125 C282.53074451 209.19948361 273.12369841 215.43776032 262.5 217.5625 C248.92143589 219.03045288 237.14811258 217.2939264 226.1875 208.8125 C217.15489426 201.29563975 211.91590121 192.23227881 209.1875 180.8125 C207.91053045 166.5134107 210.37600048 155.75259312 219.1875 144.1875 C221.09511158 141.92221125 222.98563234 139.7941809 225.1875 137.8125 C225.8475 137.8125 226.5075 137.8125 227.1875 137.8125 C223.90124602 128.48991635 219.83410539 119.66794204 215.49072266 110.7980957 C215.06452637 109.92241943 214.63833008 109.04674316 214.19921875 108.14453125 C213.81209717 107.35796143 213.42497559 106.5713916 213.02612305 105.76098633 C212.1875 103.8125 212.1875 103.8125 212.1875 101.8125 C211.506875 102.0290625 210.82625 102.245625 210.125 102.46875 C195.06121732 106.7955812 180.03045954 105.96571322 165.79296875 99.19921875 C160.11880039 96.04379344 155.47106586 92.69100557 151.1875 87.8125 C146.45906386 89.38563172 142.8441157 92.01891235 138.875 94.9375 C138.22982422 95.40542969 137.58464844 95.87335938 136.91992188 96.35546875 C135.33901106 97.5030929 133.76277699 98.65715477 132.1875 99.8125 C132.620625 101.730625 132.620625 101.730625 133.0625 103.6875 C133.43793679 105.39573739 133.81291227 107.10407622 134.1875 108.8125 C134.37828125 109.65167969 134.5690625 110.49085938 134.765625 111.35546875 C137.62831062 124.54427034 135.71850422 136.69477339 128.7734375 148.3828125 C122.1288104 158.56251215 112.02095514 165.66258748 100.1875 168.8125 C87.4405795 171.0366919 74.95583439 169.3735276 63.78125 162.65234375 C52.84509417 154.89491996 45.48841509 144.34493494 42.75 131.125 C41.52558341 121.94860314 42.25439362 113.81421461 44.1875 104.8125 C43.64971924 104.49087891 43.11193848 104.16925781 42.55786133 103.83789062 C40.03807197 102.3302646 37.51898854 100.82146366 35 99.3125 C34.09266113 98.76948242 33.18532227 98.22646484 32.25048828 97.66699219 C28.1619565 95.21575757 24.07885521 92.75904441 20.03515625 90.234375 C19.43920654 89.86248047 18.84325684 89.49058594 18.22924805 89.10742188 C16.65814652 88.12246296 15.09067013 87.13172841 13.5234375 86.140625 C11.34557888 84.64774695 11.34557888 84.64774695 9.1875 84.8125 C7.69149645 86.36937943 7.69149645 86.36937943 6.125 88.375 C-4.63743148 100.90538737 -18.61142164 106.68599583 -34.8125 108.8125 C-41.33449906 109.29428926 -47.24967462 108.54170282 -53.8125 107.8125 C-56.7825 115.0725 -59.7525 122.3325 -62.8125 129.8125 C-60.95625 131.42125 -59.1 133.03 -57.1875 134.6875 C-47.21020314 143.66157558 -41.66778918 154.39271292 -40.82421875 167.87109375 C-40.77052686 181.34775785 -45.19769935 193.27138644 -54.375 203.25 C-62.44013456 210.70134958 -72.81299714 215.83357984 -83.8125 216.8125 C-84.67101562 216.89371094 -85.52953125 216.97492188 -86.4140625 217.05859375 C-98.45337252 217.63106815 -109.44610506 213.20625326 -118.8125 205.8125 C-129.21561438 196.24519139 -134.31120627 184.00547249 -135 170 C-134.71005257 157.36312468 -129.83491192 145.66707106 -121.25 136.375 C-111.3377933 127.16212077 -100.29152929 123.62114849 -87 123.75 C-86.11634766 123.75451172 -85.23269531 123.75902344 -84.32226562 123.76367188 C-82.15231441 123.77540134 -79.98239828 123.79333505 -77.8125 123.8125 C-76.4707322 120.54506344 -75.14055641 117.27303092 -73.8125 114 C-73.24015625 112.6068457 -73.24015625 112.6068457 -72.65625 111.18554688 C-72.2953125 110.29287109 -71.934375 109.40019531 -71.5625 108.48046875 C-71.22734375 107.65828857 -70.8921875 106.8361084 -70.546875 105.98901367 C-69.65264944 103.72158534 -69.65264944 103.72158534 -69.8125 100.8125 C-71.4783279 99.46310973 -71.4783279 99.46310973 -73.6875 98.25 C-87.36046 89.47097231 -96.15624363 76.55649919 -99.78076172 60.84521484 C-102.89040496 45.33432931 -100.7288981 29.02737939 -92.578125 15.33984375 C-87.65977635 8.29964114 -81.65909004 2.00215272 -74.8125 -3.1875 C-73.99652344 -3.82945313 -73.99652344 -3.82945313 -73.1640625 -4.484375 C-50.98988518 -20.17091092 -20.54902349 -15.74758268 0 0 Z " fill="#6BDF02" transform="translate(136.8125,26.1875)"/>
<path d="M0 0 C5.62170914 1.22211068 9.759606 3.55849383 14.62109375 6.6015625 C17.317094 8.18640337 19.97776265 9.20467438 23 10 C24.72503709 16.65629495 22.87270617 20.82936593 20.0625 26.9375 C19.48338867 28.24944336 19.48338867 28.24944336 18.89257812 29.58789062 C17.94332711 31.73249478 16.97905946 33.86888098 16 36 C16.79664062 36.67804688 17.59328125 37.35609375 18.4140625 38.0546875 C29.02999089 47.29364047 35.99336776 56.96567751 37.8125 71.25 C38.64737038 84.58937344 34.95661944 96.22772651 26.80859375 106.859375 C18.57025773 115.81703855 7.20647126 121.91366356 -5 123 C-5.85851563 123.08121094 -6.71703125 123.16242188 -7.6015625 123.24609375 C-19.64087252 123.81856815 -30.63360506 119.39375326 -40 112 C-50.40311438 102.43269139 -55.49870627 90.19297249 -56.1875 76.1875 C-55.89755257 63.55062468 -51.02241192 51.85457106 -42.4375 42.5625 C-32.5252933 33.34962077 -21.47902929 29.80864849 -8.1875 29.9375 C-7.30384766 29.94201172 -6.42019531 29.94652344 -5.50976562 29.95117188 C-3.33981441 29.96290134 -1.16989828 29.98083505 1 30 C2.3417678 26.73256344 3.67194359 23.46053092 5 20.1875 C5.3815625 19.25873047 5.763125 18.32996094 6.15625 17.37304688 C6.69765625 16.0340332 6.69765625 16.0340332 7.25 14.66796875 C7.58515625 13.84578857 7.9203125 13.0236084 8.265625 12.17651367 C9.15985056 9.90908534 9.15985056 9.90908534 9 7 C7.00184197 5.34063127 7.00184197 5.34063127 4.5 3.875 C2.98742349 2.93664235 1.48376208 1.98328677 0 1 C0 0.67 0 0.34 0 0 Z " fill="#6CE102" transform="translate(58,120)"/>
<path d="M0 0 C0.33 0.99 0.66 1.98 1 3 C1.65484375 2.84402344 2.3096875 2.68804687 2.984375 2.52734375 C15.3368247 -0.10714764 26.64136465 1.17111096 37.6640625 7.5390625 C47.95521418 14.3480118 55.16858241 23.30148315 58.3125 35.375 C60.87805571 49.38688121 57.94617723 62.2375666 50 74 C43.34324451 82.38698361 33.93619841 88.62526032 23.3125 90.75 C9.73393589 92.21795288 -2.03938742 90.4814264 -13 82 C-22.03260574 74.48313975 -27.27159879 65.41977881 -30 54 C-31.05491687 42.18738435 -30.10743095 30.22972359 -22.5625 20.515625 C-20.01689823 18.04639128 -17.06112164 16.30026742 -13.98828125 14.5546875 C-11.52743462 12.63048915 -11.10250005 10.87470055 -10 8 C-7.0140429 5.488918 -3.94623899 4 0 4 C0 2.68 0 1.36 0 0 Z " fill="#6ADE01" transform="translate(376,153)"/>
<path d="M0 0 C5.56206745 4.80172539 10.53451309 10.41015979 14.1875 16.8125 C13.8575 17.8025 13.5275 18.7925 13.1875 19.8125 C12.5275 19.8125 11.8675 19.8125 11.1875 19.8125 C9.62506767 18.06257579 8.2370534 16.21295788 6.8203125 14.34375 C5.07429482 12.35646186 5.07429482 12.35646186 1.1875 12.8125 C0.919375 11.884375 0.65125 10.95625 0.375 10 C-0.72398371 7.05009634 -1.43668561 5.75634814 -3.8125 3.8125 C-4.43125 4.163125 -5.05 4.51375 -5.6875 4.875 C-6.739375 5.3390625 -6.739375 5.3390625 -7.8125 5.8125 C-8.4725 5.4825 -9.1325 5.1525 -9.8125 4.8125 C-9.8125 3.8225 -9.8125 2.8325 -9.8125 1.8125 C-11.09125 2.01875 -12.37 2.225 -13.6875 2.4375 C-15.8671875 2.7890625 -15.8671875 2.7890625 -17.8125 2.8125 C-18.8025 1.8225 -18.8025 1.8225 -19.8125 0.8125 C-20.59625 0.8125 -21.38 0.8125 -22.1875 0.8125 C-24.8125 0.8125 -24.8125 0.8125 -26.625 -0.1875 C-29.9892792 -1.72545621 -33.2218832 -1.75136943 -36.8125 -1.1875 C-39.03897672 -0.25394222 -41.07157966 0.80641765 -43.1484375 2.03515625 C-43.69757813 2.29167969 -44.24671875 2.54820313 -44.8125 2.8125 C-45.4725 2.4825 -46.1325 2.1525 -46.8125 1.8125 C-46.8125 1.1525 -46.8125 0.4925 -46.8125 -0.1875 C-47.41578125 0.22242188 -48.0190625 0.63234375 -48.640625 1.0546875 C-49.83945313 1.86292969 -49.83945313 1.86292969 -51.0625 2.6875 C-51.85140625 3.22117187 -52.6403125 3.75484375 -53.453125 4.3046875 C-55.8125 5.8125 -55.8125 5.8125 -57.78515625 6.75390625 C-65.77730734 10.92707185 -77.84924581 20.23235457 -80.90234375 28.91015625 C-81.20269531 29.86792969 -81.50304687 30.82570312 -81.8125 31.8125 C-84.3125 34.5625 -84.3125 34.5625 -86.8125 36.8125 C-90.94785836 40.94785836 -90.9257501 47.61139172 -91.04296875 53.21484375 C-91.03904578 55.05994726 -91.02463382 56.90505677 -91 58.75 C-90.99935547 59.69423828 -90.99871094 60.63847656 -90.99804688 61.61132812 C-91.14375596 66.37015277 -91.14375596 66.37015277 -89.8125 70.8125 C-90.8025 71.8025 -91.7925 72.7925 -92.8125 73.8125 C-93.63446606 71.79549841 -94.44463217 69.77368631 -95.25 67.75 C-95.70246094 66.62464844 -96.15492187 65.49929687 -96.62109375 64.33984375 C-101.06488055 51.18332086 -100.05507891 35.16880068 -94.34765625 22.58203125 C-93.33129186 20.54184748 -92.28959828 18.51394334 -91.21484375 16.50390625 C-89.77438833 13.88993326 -89.77438833 13.88993326 -88.90625 11.26953125 C-84.89997775 2.26972681 -73.83789144 -5.41954542 -64.87792969 -8.94970703 C-41.70272791 -17.24059999 -19.95024312 -15.28871204 0 0 Z " fill="#4E9F05" transform="translate(136.8125,26.1875)"/>
<path d="M0 0 C2.31 0 4.62 0 7 0 C7 0.66 7 1.32 7 2 C9.97 2.33 12.94 2.66 16 3 C16 3.66 16 4.32 16 5 C16.556875 4.99097656 17.11375 4.98195312 17.6875 4.97265625 C23.65431463 5.20447506 26.88831168 6.75577235 31.1484375 10.9140625 C39.93055046 20.80783533 43.37151971 31.69683963 43.2109375 44.81640625 C42.36733539 57.54854916 36.4596318 68.50017699 27.21875 77.125 C18.80308538 84.23682925 9.8556065 85.15440357 -0.8125 85.25 C-1.90667236 85.26401855 -1.90667236 85.26401855 -3.02294922 85.27832031 C-7.12131555 85.25379614 -10.31454253 84.82462727 -14 83 C-14 82.67 -14 82.34 -14 82 C-12.58847656 81.83564453 -12.58847656 81.83564453 -11.1484375 81.66796875 C-9.90320313 81.50941406 -8.65796875 81.35085937 -7.375 81.1875 C-6.14523437 81.03667969 -4.91546875 80.88585937 -3.6484375 80.73046875 C2.43262631 79.51295383 6.93546717 76.44819256 12 73 C12.825 72.566875 13.65 72.13375 14.5 71.6875 C19.3765876 68.39580337 23.47988973 63.3054953 26 58 C26.3496418 55.66905466 26.68554487 53.33595238 27 51 C27.66 50.67 28.32 50.34 29 50 C29.69227032 47.19019327 29.69227032 47.19019327 30.125 43.9375 C30.37636719 42.28041016 30.37636719 42.28041016 30.6328125 40.58984375 C30.81457031 39.30787109 30.81457031 39.30787109 31 38 C30.67 38 30.34 38 30 38 C28.26044666 31.56986533 27.75008544 25.65050424 28 19 C27.34 19 26.68 19 26 19 C25.731875 18.360625 25.46375 17.72125 25.1875 17.0625 C24.11332248 14.66868314 24.11332248 14.66868314 21 14 C19.8125 11.9375 19.8125 11.9375 19 10 C18.01 10 17.02 10 16 10 C16 9.01 16 8.02 16 7 C15.43152344 6.90203125 14.86304688 6.8040625 14.27734375 6.703125 C8.77085969 5.63676081 4.7268801 4.01715751 0 1 C0 0.67 0 0.34 0 0 Z " fill="#427D08" transform="translate(392,157)"/>
<path d="M0 0 C0.87398437 0.7425 0.87398437 0.7425 1.765625 1.5 C1.765625 2.49 1.765625 3.48 1.765625 4.5 C-1.55349909 4.10486618 -3.98317422 3.64114047 -6.91796875 1.9921875 C-10.99913482 0.15590312 -14.24749999 -0.0758207 -18.671875 -0.0625 C-19.45594727 -0.0615332 -20.24001953 -0.06056641 -21.04785156 -0.05957031 C-30.44986708 0.21774166 -38.69190559 3.40585417 -46.46875 8.703125 C-49.234375 10.5 -49.234375 10.5 -52.234375 10.5 C-52.50121094 11.07492188 -52.76804688 11.64984375 -53.04296875 12.2421875 C-54.27501995 14.57702551 -55.68275775 16.53894184 -57.296875 18.625 C-59.46663695 21.43627263 -59.46663695 21.43627263 -61.234375 24.5 C-61.894375 24.5 -62.554375 24.5 -63.234375 24.5 C-64.81954384 28.83279483 -65.60827821 32.93843766 -66.234375 37.5 C-66.729375 37.995 -66.729375 37.995 -67.234375 38.5 C-67.33300103 39.89174359 -67.3651648 41.28836143 -67.3671875 42.68359375 C-67.36847656 43.52857422 -67.36976563 44.37355469 -67.37109375 45.24414062 C-67.36722656 46.13294922 -67.36335937 47.02175781 -67.359375 47.9375 C-67.36324219 48.82244141 -67.36710938 49.70738281 -67.37109375 50.61914062 C-67.36980469 51.46541016 -67.36851562 52.31167969 -67.3671875 53.18359375 C-67.36605957 53.96275146 -67.36493164 54.74190918 -67.36376953 55.54467773 C-67.35582653 57.57974488 -67.35582653 57.57974488 -66.234375 59.5 C-66.894375 60.49 -67.554375 61.48 -68.234375 62.5 C-73.9998681 47.67061542 -75.3288171 34.29686446 -68.91015625 19.43359375 C-65.17115765 11.90652832 -65.17115765 11.90652832 -60.921875 10.0625 C-60.035 9.876875 -59.148125 9.69125 -58.234375 9.5 C-57.61344782 7.68703385 -57.61344782 7.68703385 -57.234375 5.5 C-52.53647332 -1.62262512 -45.56118364 -4.92383875 -37.359375 -6.8125 C-23.81387616 -9.01364356 -11.77337289 -7.10845156 0 0 Z " fill="#479204" transform="translate(252.234375,107.5)"/>
<path d="M0 0 C1.41687119 4.25061356 0.19320039 6.71851625 -1 11 C-0.27546631 11.27021973 0.44906738 11.54043945 1.19555664 11.81884766 C3.95017739 12.97901612 6.33768284 14.31796556 8.87109375 15.8984375 C10.22750977 16.74148437 10.22750977 16.74148437 11.61132812 17.6015625 C12.54396484 18.18679687 13.47660156 18.77203125 14.4375 19.375 C15.36626953 19.9525 16.29503906 20.53 17.25195312 21.125 C18.15751953 21.68960938 19.06308594 22.25421875 19.99609375 22.8359375 C20.8660498 23.37831055 21.73600586 23.92068359 22.63232422 24.47949219 C24.61480538 25.75263022 26.50929257 27.08749278 28.41015625 28.4765625 C30.80679752 30.18730107 30.80679752 30.18730107 33.140625 29.97265625 C35.44825693 28.76551266 36.96211009 27.3285374 38.75 25.4375 C39.36359375 24.79683594 39.9771875 24.15617187 40.609375 23.49609375 C41.06828125 23.00238281 41.5271875 22.50867188 42 22 C42.66 22.33 43.32 22.66 44 23 C43.195625 23.763125 42.39125 24.52625 41.5625 25.3125 C38.83200976 27.79430898 38.83200976 27.79430898 38 31 C37.23300781 31.26554687 36.46601563 31.53109375 35.67578125 31.8046875 C31.98863183 33.45179366 31.09007954 35.61828476 29.1875 39.125 C28.28064453 40.76855469 28.28064453 40.76855469 27.35546875 42.4453125 C26.68451172 43.70988281 26.68451172 43.70988281 26 45 C19.48625128 41.89203314 13.42047461 38.27494836 7.3125 34.4375 C5.47541227 33.29012141 3.63817749 32.14297823 1.80078125 30.99609375 C0.59675659 30.24090454 0.59675659 30.24090454 -0.6315918 29.47045898 C-1.4131665 28.98520752 -2.19474121 28.49995605 -3 28 C-3.88276611 27.44320557 -4.76553223 26.88641113 -5.67504883 26.31274414 C-7.84526664 24.83610949 -7.84526664 24.83610949 -10 25 C-11.69088222 26.97956942 -13.35830472 28.97945196 -15 31 C-15.33 31 -15.66 31 -16 31 C-16 29.35 -16 27.7 -16 26 C-15.01 25.67 -14.02 25.34 -13 25 C-11.64426252 23.68945377 -10.31387169 22.35251497 -9 21 C-4.73770492 17.06557377 -4.73770492 17.06557377 -1.1875 16.75 C-0.465625 16.8325 0.25625 16.915 1 17 C1 16.34 1 15.68 1 15 C-0.0209375 14.1646875 -0.0209375 14.1646875 -1.0625 13.3125 C-3 11 -3 11 -2.875 7.5 C-2.16718535 4.6687414 -1.48842699 2.48071165 0 0 Z " fill="#70E10B" transform="translate(156,86)"/>
<path d="M0 0 C5.56206745 4.80172539 10.53451309 10.41015979 14.1875 16.8125 C13.8575 17.8025 13.5275 18.7925 13.1875 19.8125 C12.5275 19.8125 11.8675 19.8125 11.1875 19.8125 C9.62506767 18.06257579 8.2370534 16.21295788 6.8203125 14.34375 C5.07429482 12.35646186 5.07429482 12.35646186 1.1875 12.8125 C0.919375 11.884375 0.65125 10.95625 0.375 10 C-0.72398371 7.05009634 -1.43668561 5.75634814 -3.8125 3.8125 C-4.43125 4.163125 -5.05 4.51375 -5.6875 4.875 C-6.739375 5.3390625 -6.739375 5.3390625 -7.8125 5.8125 C-8.4725 5.4825 -9.1325 5.1525 -9.8125 4.8125 C-9.8125 3.8225 -9.8125 2.8325 -9.8125 1.8125 C-11.09125 2.01875 -12.37 2.225 -13.6875 2.4375 C-15.8671875 2.7890625 -15.8671875 2.7890625 -17.8125 2.8125 C-18.4725 2.1525 -19.1325 1.4925 -19.8125 0.8125 C-20.59625 0.8125 -21.38 0.8125 -22.1875 0.8125 C-24.8125 0.8125 -24.8125 0.8125 -26.625 -0.1875 C-29.9892792 -1.72545621 -33.2218832 -1.75136943 -36.8125 -1.1875 C-39.03897672 -0.25394222 -41.07157966 0.80641765 -43.1484375 2.03515625 C-43.69757813 2.29167969 -44.24671875 2.54820313 -44.8125 2.8125 C-45.4725 2.4825 -46.1325 2.1525 -46.8125 1.8125 C-46.4825 0.8225 -46.1525 -0.1675 -45.8125 -1.1875 C-47.4625 -1.5175 -49.1125 -1.8475 -50.8125 -2.1875 C-50.8125 -1.5275 -50.8125 -0.8675 -50.8125 -0.1875 C-53.4525 -0.1875 -56.0925 -0.1875 -58.8125 -0.1875 C-52.26126192 -6.3292857 -44.35103988 -6.49771512 -35.8125 -6.8125 C-34.50732422 -6.87050781 -34.50732422 -6.87050781 -33.17578125 -6.9296875 C-31.05499514 -7.02290887 -28.93377815 -7.10624136 -26.8125 -7.1875 C-29.70858593 -7.24163245 -32.60365195 -7.28123641 -35.5 -7.3125 C-36.31662109 -7.32925781 -37.13324219 -7.34601562 -37.97460938 -7.36328125 C-42.44002643 -7.39943847 -45.71143975 -7.14621534 -49.8125 -5.1875 C-52.625 -5.0625 -52.625 -5.0625 -54.8125 -5.1875 C-48.89659475 -8.25500643 -44.117154 -9.52865425 -37.5 -9.8125 C-36.75943359 -9.85117187 -36.01886719 -9.88984375 -35.25585938 -9.9296875 C-33.44178691 -10.02331705 -31.62717884 -10.10646851 -29.8125 -10.1875 C-29.8125 -10.8475 -29.8125 -11.5075 -29.8125 -12.1875 C-36.7425 -12.1875 -43.6725 -12.1875 -50.8125 -12.1875 C-50.8125 -12.5175 -50.8125 -12.8475 -50.8125 -13.1875 C-32.16145193 -16.36214648 -15.00520522 -11.49912111 0 0 Z " fill="#4A9604" transform="translate(136.8125,26.1875)"/>
<path d="M0 0 C0 0.66 0 1.32 0 2 C-1.02738281 2.09796875 -2.05476563 2.1959375 -3.11328125 2.296875 C-11.6070842 3.18213881 -19.11182269 4.56156374 -27 8 C-27.94746094 8.38285156 -28.89492187 8.76570313 -29.87109375 9.16015625 C-35.81037626 11.66642065 -40.42175134 14.46981694 -45 19 C-45.886875 19.845625 -46.77375 20.69125 -47.6875 21.5625 C-51.03682093 25.09286531 -53.77205154 28.20430185 -55.5625 32.75 C-56.036875 33.8225 -56.51125 34.895 -57 36 C-58.485 36.495 -58.485 36.495 -60 37 C-61.92791589 40.00892586 -62.67033451 43.23807556 -63.5 46.6875 C-63.75652344 47.739375 -64.01304688 48.79125 -64.27734375 49.875 C-64.91652744 52.63903759 -65.49675811 55.40779182 -66.0625 58.1875 C-66.371875 59.445625 -66.68125 60.70375 -67 62 C-67.99 62.495 -67.99 62.495 -69 63 C-69.56239134 50.08582852 -67.50561053 40.10591283 -61.40234375 28.69140625 C-59.96188833 26.07743326 -59.96188833 26.07743326 -59.09375 23.45703125 C-54.82726197 13.87267065 -43.36068024 6.80417086 -34.09375 2.71875 C-22.86421784 -1.41844606 -11.75603224 -1.3768326 0 0 Z " fill="#325A0E" transform="translate(107,14)"/>
<path d="M0 0 C0.74064697 -0.01466309 1.48129395 -0.02932617 2.24438477 -0.04443359 C7.20301552 0.04769094 10.65792557 1.20523447 14.94995117 3.68286133 C17.25129922 4.84792484 19.15399978 4.87918753 21.6875 4.5625 C22.1825 6.5425 22.1825 6.5425 22.6875 8.5625 C21.0375 8.5625 19.3875 8.5625 17.6875 8.5625 C17.6875 7.9025 17.6875 7.2425 17.6875 6.5625 C17.0275 6.5625 16.3675 6.5625 15.6875 6.5625 C15.6875 7.5525 15.6875 8.5425 15.6875 9.5625 C15.0275 9.5625 14.3675 9.5625 13.6875 9.5625 C13.6875 8.9025 13.6875 8.2425 13.6875 7.5625 C1.61889323 5.16589724 -8.12094683 3.34370983 -18.9375 10.15234375 C-21.3125 11.5625 -21.3125 11.5625 -23.26757812 11.98876953 C-29.83351821 13.83093276 -36.59948671 22.74152857 -40.015625 28.3671875 C-42.66297928 34.70898395 -43.36230573 41.03916387 -43.3125 47.875 C-43.3125 51.5625 -43.3125 51.5625 -44.3125 54.5625 C-43.6525 54.5625 -42.9925 54.5625 -42.3125 54.5625 C-42.6425 57.5325 -42.9725 60.5025 -43.3125 63.5625 C-45.2925 64.0575 -45.2925 64.0575 -47.3125 64.5625 C-49.20874744 58.97119333 -49.59054677 54.0682746 -49.5 48.1875 C-49.49935547 47.36894531 -49.49871094 46.55039063 -49.49804688 45.70703125 C-49.45324248 39.70324248 -49.45324248 39.70324248 -48.3125 38.5625 C-48.18875 37.510625 -48.065 36.45875 -47.9375 35.375 C-47.31064406 31.55117875 -46.19526278 28.9187293 -44.3125 25.5625 C-43.6525 25.5625 -42.9925 25.5625 -42.3125 25.5625 C-42.04308594 24.82902344 -41.77367187 24.09554687 -41.49609375 23.33984375 C-37.59447532 14.18456091 -31.15186465 9.55001 -22.3125 5.5625 C-21.33410156 5.07523437 -20.35570312 4.58796875 -19.34765625 4.0859375 C-12.8686181 1.1609745 -7.03402094 0.08531344 0 0 Z " fill="#5BBC04" transform="translate(233.3125,106.4375)"/>
<path d="M0 0 C8.53959629 4.14041032 13.57975791 12.4627551 17 21 C20.9344778 32.61900476 19.68330384 44.8728281 14.67578125 55.921875 C11.81694186 61.47447643 8.97623466 66.16415245 4 70 C0.625 70.375 0.625 70.375 -2 70 C-1.61328125 69.56429687 -1.2265625 69.12859375 -0.828125 68.6796875 C11.15955008 54.97100956 13.10657371 41.63811421 12 24 C11.38847454 19.85849651 10.69541456 15.84433506 9 12 C8.01 11.34 7.02 10.68 6 10 C4.98133771 8.34467377 3.98189187 6.67739862 3 5 C2.443125 4.443125 1.88625 3.88625 1.3125 3.3125 C0.879375 2.879375 0.44625 2.44625 0 2 C0 1.34 0 0.68 0 0 Z " fill="#39680C" transform="translate(416,163)"/>
<path d="M0 0 C0.99 0.33 1.98 0.66 3 1 C4.64039513 4.79880978 5.11717047 7.89903367 5 12 C5.495 12.495 5.495 12.495 6 13 C6.62383045 23.21650196 7.13990748 32.82695344 2 42 C1.67386719 42.69480469 1.34773438 43.38960937 1.01171875 44.10546875 C-0.48475764 46.9077508 -2.73490215 48.78757884 -5 51 C-5.86307771 52.0762475 -6.71733338 53.15963071 -7.5625 54.25 C-10.66756757 57.75315315 -10.66756757 57.75315315 -14 58 C-14 58.99 -14 59.98 -14 61 C-15.65 61 -17.3 61 -19 61 C-19 61.66 -19 62.32 -19 63 C-21.88265149 63.96088383 -23.67662271 64.11670941 -26.66796875 64.09765625 C-27.56064453 64.09443359 -28.45332031 64.09121094 -29.37304688 64.08789062 C-30.76620117 64.07532227 -30.76620117 64.07532227 -32.1875 64.0625 C-33.12787109 64.05798828 -34.06824219 64.05347656 -35.03710938 64.04882812 C-37.35813712 64.03704626 -39.67903644 64.02059558 -42 64 C-42 63.67 -42 63.34 -42 63 C-41.05898438 62.89042969 -40.11796875 62.78085938 -39.1484375 62.66796875 C-37.90320313 62.50941406 -36.65796875 62.35085937 -35.375 62.1875 C-34.14523437 62.03667969 -32.91546875 61.88585937 -31.6484375 61.73046875 C-25.56737369 60.51295383 -21.06453283 57.44819256 -16 54 C-15.175 53.566875 -14.35 53.13375 -13.5 52.6875 C-8.6234124 49.39580337 -4.52011027 44.3054953 -2 39 C-1.6503582 36.66905466 -1.31445513 34.33595238 -1 32 C-0.34 31.67 0.32 31.34 1 31 C1.69227032 28.19019327 1.69227032 28.19019327 2.125 24.9375 C2.29257812 23.83277344 2.46015625 22.72804687 2.6328125 21.58984375 C2.81457031 20.30787109 2.81457031 20.30787109 3 19 C2.67 19 2.34 19 2 19 C0.26044666 12.56986533 -0.24991456 6.65050424 0 0 Z " fill="#5DBE02" transform="translate(420,176)"/>
<path d="M0 0 C0.33 0.66 0.66 1.32 1 2 C-0.04283086 4.22311221 -1.13898142 6.34774711 -2.3125 8.5 C-9.10145146 21.62452831 -10.48241137 37.74002098 -6 52 C-4.79449522 55.06897592 -3.46866459 58.04841194 -2 61 C-1.67 60.01 -1.34 59.02 -1 58 C-1.33 57.67 -1.66 57.34 -2 57 C-2.25445459 53.67455646 -2.18524425 50.33400484 -2.1875 47 C-2.19974609 46.07832031 -2.21199219 45.15664062 -2.22460938 44.20703125 C-2.24996804 32.22083646 -2.24996804 32.22083646 0 27 C0.99 26.67 1.98 26.34 3 26 C3.125 29.375 3.125 29.375 3 33 C2.34 33.66 1.68 34.32 1 35 C0.69019723 36.99920963 0.69019723 36.99920963 0.734375 39.2890625 C0.73179688 40.14886719 0.72921875 41.00867188 0.7265625 41.89453125 C0.73429687 42.79558594 0.74203125 43.69664063 0.75 44.625 C0.74226563 45.50285156 0.73453125 46.38070312 0.7265625 47.28515625 C0.7476349 54.37602035 1.54542556 61.66661352 5 68 C7.04105639 68.88693303 7.04105639 68.88693303 9 69 C9 71.31 9 73.62 9 76 C9.66 76 10.32 76 11 76 C12.7143618 77.95927063 14.38405168 79.95880212 16 82 C10.20998801 80.75928315 7.19419062 77.80261285 4 73 C4 72.34 4 71.68 4 71 C3.24976563 70.96390625 2.49953125 70.9278125 1.7265625 70.890625 C-1 70 -1 70 -2.9140625 67.296875 C-11.71926847 49.04316035 -13.60823052 31.34263218 -7 12 C-2.77004219 2.77004219 -2.77004219 2.77004219 0 0 Z " fill="#55B203" transform="translate(47,38)"/>
<path d="M0 0 C0.83273438 -0.01224609 1.66546875 -0.02449219 2.5234375 -0.03710938 C3.71839844 -0.04000977 3.71839844 -0.04000977 4.9375 -0.04296875 C6.03384766 -0.04913208 6.03384766 -0.04913208 7.15234375 -0.05541992 C9 0.1875 9 0.1875 11 2.1875 C10.410979 2.20208252 9.82195801 2.21666504 9.21508789 2.23168945 C6.49696198 2.30703764 3.77995058 2.40340384 1.0625 2.5 C0.13630859 2.52255859 -0.78988281 2.54511719 -1.74414062 2.56835938 C-10.7967989 2.91776022 -17.98055941 5.37111522 -25.875 9.6875 C-27.51082031 10.56921875 -27.51082031 10.56921875 -29.1796875 11.46875 C-31.54484675 12.91012129 -33.14198348 14.1883683 -35 16.1875 C-35.61875 16.435 -36.2375 16.6825 -36.875 16.9375 C-40.88402871 19.29575218 -43.13019981 23.64558147 -45.375 27.625 C-46.93048369 30.07787813 -48.58944337 31.94298968 -50.5625 34.0625 C-53.75237989 37.65446559 -55.09091963 40.39416712 -56 45.1875 C-56.18175781 45.89132813 -56.36351562 46.59515625 -56.55078125 47.3203125 C-58.13925729 53.86872393 -58.09475375 60.17843278 -57.875 66.8671875 C-57.99326771 70.00867358 -58.3266067 71.58589635 -60 74.1875 C-62.36140321 69.46469357 -62.87419322 64.41332023 -63 59.1875 C-62.505 58.6925 -62.505 58.6925 -62 58.1875 C-61.50889744 56.00712298 -61.05750481 53.8177529 -60.625 51.625 C-58.86464524 43.32016845 -57.24817808 37.21678072 -51.40625 30.90234375 C-49.7431691 29.03649082 -49.7431691 29.03649082 -48.5 25.6875 C-45.60960146 18.94323673 -41.14370722 15.06070672 -35 11.1875 C-34.13375 10.1975 -34.13375 10.1975 -33.25 9.1875 C-27.75181822 4.30022731 -20.11550507 2.78142254 -13.03125 1.58203125 C-8.43870476 0.69001766 -4.85266897 0.00375594 0 0 Z " fill="#408005" transform="translate(101,17.8125)"/>
<path d="M0 0 C0.66 0.33 1.32 0.66 2 1 C-0.64 3.64 -3.28 6.28 -6 9 C-4.35 8.34 -2.7 7.68 -1 7 C-0.01 6.67 0.98 6.34 2 6 C2.33 5.34 2.66 4.68 3 4 C4.97888961 3.27306096 6.97954558 2.60183749 9 2 C7.05126296 4.6704915 5.54461996 6.69902581 2.625 8.3125 C-2.33576306 11.50156197 -5.54584271 16.49926027 -7.6875 21.9375 C-8.120625 22.948125 -8.55375 23.95875 -9 25 C-9.99 25.33 -10.98 25.66 -12 26 C-13.92791589 29.00892586 -14.67033451 32.23807556 -15.5 35.6875 C-15.75652344 36.739375 -16.01304688 37.79125 -16.27734375 38.875 C-16.91652744 41.63903759 -17.49675811 44.40779182 -18.0625 47.1875 C-18.371875 48.445625 -18.68125 49.70375 -19 51 C-19.99 51.495 -19.99 51.495 -21 52 C-21.56239134 39.08582852 -19.50561053 29.10591283 -13.40234375 17.69140625 C-11.95935042 15.08531013 -11.95935042 15.08531013 -11.13671875 12.484375 C-9.62593593 9.1824579 -7.48346418 7.19563864 -4.875 4.6875 C-3.96492188 3.80449219 -3.05484375 2.92148437 -2.1171875 2.01171875 C-1.41851562 1.34785156 -0.71984375 0.68398438 0 0 Z " fill="#284F08" transform="translate(59,25)"/>
<path d="M0 0 C0 0.99 0 1.98 0 3 C-1.63195312 3.03867188 -1.63195312 3.03867188 -3.296875 3.078125 C-15.50033679 3.49605177 -25.54586279 5.56482995 -36.16015625 11.94921875 C-38 13 -38 13 -41 14 C-41.70151152 15.3153341 -42.36525925 16.65117592 -43 18 C-43.47566406 18.45761719 -43.95132813 18.91523437 -44.44140625 19.38671875 C-46.14332991 21.14835903 -46.94162217 22.71066589 -47.9375 24.9375 C-49.51677471 28.24848907 -51.17980364 30.58268883 -54 33 C-54.89135322 27.35476294 -52.5271333 23.78721493 -49.80078125 19.07421875 C-47.62022366 16.56255697 -46.25261861 16.29367766 -43 16 C-42.938125 15.46375 -42.87625 14.9275 -42.8125 14.375 C-40.91944587 8.84145716 -37.31214706 5.91490622 -32.3125 3.25 C-22.20051513 -1.39523973 -10.87189513 -2.47538596 0 0 Z " fill="#2C4517" transform="translate(237,101)"/>
<path d="M0 0 C1.65 0 3.3 0 5 0 C1.55005905 3.71532103 -2.2382223 6.72043423 -6.86328125 8.86328125 C-16.57246712 14.02849714 -27.61031819 23.48477431 -31 34 C-33.625 35.875 -33.625 35.875 -36 37 C-35.54776088 30.32947293 -34.35517634 27.22096928 -29.4375 22.5 C-27.85456565 20.97654285 -27.85456565 20.97654285 -26.6875 18.625 C-22.96802086 12.83914356 -16.68393275 9.3325167 -11.07421875 5.55078125 C-8.89455645 4.16291469 -8.89455645 4.16291469 -8 2 C-5.36 2 -2.72 2 0 2 C0 1.34 0 0.68 0 0 Z " fill="#55AE03" transform="translate(86,24)"/>
<path d="M0 0 C0.66 0 1.32 0 2 0 C0.99806563 3.79303725 0.18975773 6.71536341 -2 10 C-1.01 10.33 -0.02 10.66 1 11 C-5.08790673 17.53886278 -11.25154344 19.6265106 -20.05566406 20.11376953 C-22.32957431 20.19281451 -24.59981058 20.23187004 -26.875 20.25 C-27.61266602 20.25926514 -28.35033203 20.26853027 -29.11035156 20.27807617 C-33.20385496 20.25416771 -35.24272799 19.87863601 -39 18 C-31.74 17.67 -24.48 17.34 -17 17 C-17 16.34 -17 15.68 -17 15 C-15.35 15 -13.7 15 -12 15 C-12 14.01 -12 13.02 -12 12 C-11.34 12 -10.68 12 -10 12 C-9.67 11.34 -9.34 10.68 -9 10 C-7.27353493 8.20430325 -5.48239456 6.48507032 -3.69140625 4.75390625 C-1.80812279 2.90534088 -1.80812279 2.90534088 0 0 Z " fill="#4F9810" transform="translate(418,222)"/>
<path d="M0 0 C10.65685737 3.71839987 19.48239427 13.32966996 25 23 C24.67 23.99 24.34 24.98 24 26 C23.34 26 22.68 26 22 26 C20.43756767 24.25007579 19.0495534 22.40045788 17.6328125 20.53125 C15.88679482 18.54396186 15.88679482 18.54396186 12 19 C11.731875 18.071875 11.46375 17.14375 11.1875 16.1875 C10.08851629 13.23759634 9.37581439 11.94384814 7 10 C6.01 10.495 6.01 10.495 5 11 C3.62437146 9.71034824 2.29233607 8.37310707 1 7 C1 6.34 1 5.68 1 5 C1.99 5 2.98 5 4 5 C3.67 4.34 3.34 3.68 3 3 C2.01 3 1.02 3 0 3 C0 2.01 0 1.02 0 0 Z " fill="#52A705" transform="translate(126,20)"/>
<path d="M0 0 C0.33 1.32 0.66 2.64 1 4 C0.01 4.33 -0.98 4.66 -2 5 C-1.87625 6.3303125 -1.87625 6.3303125 -1.75 7.6875 C-2.05391197 11.71433365 -3.18236593 13.18236593 -6 16 C-6.66 16 -7.32 16 -8 16 C-7.95875 17.093125 -7.9175 18.18625 -7.875 19.3125 C-8 23 -8 23 -10 26 C-12.14133581 34.35120966 -11.76728643 43.03114906 -8.66796875 51.01953125 C-7.75851608 53.71597865 -7.78340604 56.18427856 -8 59 C-7.34 59.33 -6.68 59.66 -6 60 C-5.27840576 61.64363134 -4.60648579 63.31050386 -4 65 C-6.375 66.5625 -6.375 66.5625 -9 68 C-9.66 67.67 -10.32 67.34 -11 67 C-9.02 66.01 -9.02 66.01 -7 65 C-7.34933594 64.04738281 -7.69867188 63.09476563 -8.05859375 62.11328125 C-8.51841666 60.84642221 -8.97804162 59.5794913 -9.4375 58.3125 C-9.66759766 57.68666016 -9.89769531 57.06082031 -10.13476562 56.41601562 C-15.45753997 41.68195911 -14.12571692 26.22747156 -8 12 C-3.21410579 3.21410579 -3.21410579 3.21410579 0 0 Z " fill="#91E146" transform="translate(285,37)"/>
<path d="M0 0 C2.55645915 1.32264682 4.18762538 2.83725498 6.0234375 5.046875 C6.0234375 6.036875 6.0234375 7.026875 6.0234375 8.046875 C4.7034375 7.716875 3.3834375 7.386875 2.0234375 7.046875 C2.0234375 6.056875 2.0234375 5.066875 2.0234375 4.046875 C0.7446875 4.253125 -0.5340625 4.459375 -1.8515625 4.671875 C-4.03125 5.0234375 -4.03125 5.0234375 -5.9765625 5.046875 C-6.6365625 4.386875 -7.2965625 3.726875 -7.9765625 3.046875 C-8.7603125 3.046875 -9.5440625 3.046875 -10.3515625 3.046875 C-12.9765625 3.046875 -12.9765625 3.046875 -14.7890625 2.046875 C-18.1533417 0.50891879 -21.3859457 0.48300557 -24.9765625 1.046875 C-27.20303922 1.98043278 -29.23564216 3.04079265 -31.3125 4.26953125 C-31.86164063 4.52605469 -32.41078125 4.78257813 -32.9765625 5.046875 C-33.6365625 4.716875 -34.2965625 4.386875 -34.9765625 4.046875 C-31.05154047 -6.88711494 -9.37686243 -2.80371302 0 0 Z " fill="#55AD04" transform="translate(124.9765625,23.953125)"/>
<path d="M0 0 C0.33 0.66 0.66 1.32 1 2 C-0.04283086 4.22311221 -1.13898142 6.34774711 -2.3125 8.5 C-9.13239195 21.68434305 -10.40446598 37.67338538 -6 52 C-5.00004356 54.62583982 -3.9497177 57.20756691 -2.8046875 59.7734375 C-2 62 -2 62 -2 66 C-1.34 66 -0.68 66 0 66 C0.33 67.65 0.66 69.3 1 71 C-7.55597017 63.13432042 -10.32259388 50.60842723 -11.3203125 39.40234375 C-11.75793845 25.52960115 -8.64475511 12.69059473 -1 1 C-0.67 0.67 -0.34 0.34 0 0 Z " fill="#A1D56F" transform="translate(47,38)"/>
<path d="M0 0 C0 0.66 0 1.32 0 2 C-1.99284138 3.3440093 -3.99419671 4.67541292 -6 6 C-11.65480811 11.25089325 -15.23546819 15.50073982 -17 23 C-17.99 23 -18.98 23 -20 23 C-20.90022134 28.40132805 -21.1100667 33.71693321 -21.125 39.1875 C-21.12951172 39.87650391 -21.13402344 40.56550781 -21.13867188 41.27539062 C-21.1278797 44.99149668 -20.78833403 48.37741745 -20 52 C-20 53.32 -20 54.64 -20 56 C-20.99 55.67 -21.98 55.34 -23 55 C-24.04756765 49.85361609 -24.15014003 44.91243571 -24.125 39.6875 C-24.12886719 38.86443359 -24.13273438 38.04136719 -24.13671875 37.19335938 C-24.12671604 31.12671604 -24.12671604 31.12671604 -23 30 C-22.87625 28.948125 -22.7525 27.89625 -22.625 26.8125 C-21.99814406 22.98867875 -20.88276278 20.3562293 -19 17 C-18.34 17 -17.68 17 -17 17 C-16.73703125 16.27039063 -16.4740625 15.54078125 -16.203125 14.7890625 C-13.73873051 9.076148 -9.96875407 4.225828 -4.6875 0.9375 C-2 0 -2 0 0 0 Z " fill="#53AA02" transform="translate(208,115)"/>
<path d="M0 0 C-0.99 0.66 -1.98 1.32 -3 2 C-3.495 1.505 -3.495 1.505 -4 1 C-6.55563371 0.92788335 -9.09660453 1.00366284 -11.65234375 1.0625 C-14 1 -14 1 -16 0 C-18.94874168 -0.1251687 -21.86356546 -0.18517983 -24.8125 -0.1875 C-26.02389648 -0.20586914 -26.02389648 -0.20586914 -27.25976562 -0.22460938 C-31.68279989 -0.23547678 -34.93672976 0.07410054 -39 2 C-41.8125 2.125 -41.8125 2.125 -44 2 C-38.08409475 -1.06750643 -33.304654 -2.34115425 -26.6875 -2.625 C-25.94693359 -2.66367187 -25.20636719 -2.70234375 -24.44335938 -2.7421875 C-22.62928691 -2.83581705 -20.81467884 -2.91896851 -19 -3 C-19 -3.66 -19 -4.32 -19 -5 C-25.93 -5 -32.86 -5 -40 -5 C-40 -5.33 -40 -5.66 -40 -6 C-26.14103062 -8.35897351 -12.60089258 -6.41098044 0 0 Z " fill="#608B34" transform="translate(126,19)"/>
<path d="M0 0 C0.66 0.33 1.32 0.66 2 1 C1.195625 1.763125 0.39125 2.52625 -0.4375 3.3125 C-3.16799024 5.79430898 -3.16799024 5.79430898 -4 9 C-5.15048828 9.39832031 -5.15048828 9.39832031 -6.32421875 9.8046875 C-10.01136817 11.45179366 -10.90992046 13.61828476 -12.8125 17.125 C-13.41707031 18.22070312 -14.02164063 19.31640625 -14.64453125 20.4453125 C-15.09183594 21.28835937 -15.53914063 22.13140625 -16 23 C-23.80715975 19.40870652 -30.83585664 14.70901558 -38 10 C-36.68 9.67 -35.36 9.34 -34 9 C-34 9.66 -34 10.32 -34 11 C-33.4225 11.144375 -32.845 11.28875 -32.25 11.4375 C-31.5075 11.623125 -30.765 11.80875 -30 12 C-29.319375 12.12375 -28.63875 12.2475 -27.9375 12.375 C-26 13 -26 13 -24.5625 14.625 C-24.046875 15.07875 -23.53125 15.5325 -23 16 C-20.39719432 15.67958603 -20.39719432 15.67958603 -18 15 C-17.67 15.33 -17.34 15.66 -17 16 C-14.87961365 13.38485683 -12.86908256 10.80362384 -11 8 C-10.37609375 7.84660156 -9.7521875 7.69320312 -9.109375 7.53515625 C-6.33507153 6.83130518 -5.19980648 5.49979532 -3.25 3.4375 C-2.63640625 2.79683594 -2.0228125 2.15617187 -1.390625 1.49609375 C-0.93171875 1.00238281 -0.4728125 0.50867188 0 0 Z " fill="#96E24E" transform="translate(198,108)"/>
<path d="M0 0 C8.53959629 4.14041032 13.57975791 12.4627551 17 21 C19.80749942 29.29089672 19.93877825 38.50039615 18 47 C15.58834596 44.58834596 15.74332649 43.9732254 15.69140625 40.67578125 C15.66626953 39.81146484 15.64113281 38.94714844 15.61523438 38.05664062 C15.5804547 36.24680918 15.54912732 34.43690764 15.52148438 32.62695312 C15.35169056 27.03203996 14.69470223 22.94580483 12 18 C11.34 17.67 10.68 17.34 10 17 C9 14 9 14 8 11 C7.34 10.67 6.68 10.34 6 10 C4.9935725 8.33720673 3.99414593 6.67016516 3 5 C2.443125 4.443125 1.88625 3.88625 1.3125 3.3125 C0.879375 2.879375 0.44625 2.44625 0 2 C0 1.34 0 0.68 0 0 Z " fill="#65775A" transform="translate(416,163)"/>
<path d="M0 0 C0.66 0.66 1.32 1.32 2 2 C2.99 1.34 3.98 0.68 5 0 C4.51917969 1.21558594 4.03835937 2.43117187 3.54296875 3.68359375 C1.5212359 9.7487923 1.44065226 15.71713215 1.3125 22.0625 C1.27833984 23.21427734 1.24417969 24.36605469 1.20898438 25.55273438 C1.12720179 28.3683921 1.05782625 31.18376571 1 34 C1.66 34.33 2.32 34.66 3 35 C3.33 35.66 3.66 36.32 4 37 C3.34 37.99 2.68 38.98 2 40 C-3.40075842 26.10874696 -4.64738441 14.30177227 0 0 Z " fill="#5A8335" transform="translate(182,130)"/>
<path d="M0 0 C0.66 0 1.32 0 2 0 C4.55678278 5.87754449 4.33156821 11.6488046 4.3125 17.9375 C4.32861328 18.99646484 4.34472656 20.05542969 4.36132812 21.14648438 C4.36650882 29.45113755 3.04417776 34.81070817 -2.1875 41.4375 C-2.98220703 42.45650391 -2.98220703 42.45650391 -3.79296875 43.49609375 C-4.19128906 43.99238281 -4.58960938 44.48867187 -5 45 C-6 43 -6 43 -5.328125 40.64453125 C-4.97234375 39.70996094 -4.6165625 38.77539062 -4.25 37.8125 C-3.90453125 36.89082031 -3.5590625 35.96914062 -3.203125 35.01953125 C-2 32 -2 32 -0.375 28.75390625 C1.34833562 24.04900419 1.37129329 20.08286341 1.25 15.125 C1.24226563 13.825625 1.24226563 13.825625 1.234375 12.5 C1.53595166 8.4248796 1.53595166 8.4248796 0 5 C-0.04063832 3.33382885 -0.042721 1.66611905 0 0 Z " fill="#4B9804" transform="translate(424,183)"/>
<path d="M0 0 C0.33 0.99 0.66 1.98 1 3 C1.65484375 2.84402344 2.3096875 2.68804687 2.984375 2.52734375 C14.30882402 0.11210109 24.47713864 0.99989866 35 6 C38.1875 8.25 38.1875 8.25 40 10 C37.36 9.67 34.72 9.34 32 9 C32 8.34 32 7.68 32 7 C29.03 6.67 26.06 6.34 23 6 C23 5.34 23 4.68 23 4 C21.98679687 4.144375 20.97359375 4.28875 19.9296875 4.4375 C18.57815455 4.62521291 17.22659036 4.81270096 15.875 5 C15.20984375 5.09539062 14.5446875 5.19078125 13.859375 5.2890625 C9.87371019 5.83611453 6.02140062 6.10022182 2 6 C2 5.34 2 4.68 2 4 C1.34 4 0.68 4 0 4 C0 2.68 0 1.36 0 0 Z " fill="#8FC75E" transform="translate(376,153)"/>
<path d="M0 0 C6.56786448 0.28555933 11.88465599 2.86243804 17 7 C17 7.99 17 8.98 17 10 C12.35230087 9.53523009 8.96409749 8.14103317 4.9296875 5.9375 C0.66597114 3.86605886 -3.28819094 3.83745662 -8 3.8125 C-9.216875 3.79832031 -10.43375 3.78414063 -11.6875 3.76953125 C-14.82912985 3.98811163 -16.33113155 4.4880493 -19 6 C-21.25 5.625 -21.25 5.625 -23 5 C-17.85244907 1.86706565 -13.94749378 1.62006165 -8.125 1.8125 C-6.949375 1.83280273 -6.949375 1.83280273 -5.75 1.85351562 C-3.83303218 1.88858211 -1.91642249 1.94237928 0 2 C0 1.34 0 0.68 0 0 Z " fill="#3E7C07" transform="translate(237,102)"/>
<path d="M0 0 C0.6875 1.75 0.6875 1.75 1 4 C-0.3125 6.25 -0.3125 6.25 -2 8 C-2.66 8 -3.32 8 -4 8 C-5.73745124 11.15287487 -6.65948137 14.19295245 -7.5 17.6875 C-7.75652344 18.739375 -8.01304688 19.79125 -8.27734375 20.875 C-8.91652744 23.63903759 -9.49675811 26.40779182 -10.0625 29.1875 C-10.371875 30.445625 -10.68125 31.70375 -11 33 C-11.99 33.495 -11.99 33.495 -13 34 C-13.38558031 25.14593366 -12.56943546 17.48831358 -10 9 C-9.67 9.66 -9.34 10.32 -9 11 C-5.70865718 9.20029819 -5.70865718 9.20029819 -4.5 5.5 C-3 2 -3 2 0 0 Z " fill="#2B6104" transform="translate(51,43)"/>
<path d="M0 0 C3.16643115 0.31286713 4.6107381 0.57611828 6.80078125 2.9609375 C7.29964844 3.75757812 7.79851562 4.55421875 8.3125 5.375 C8.82425781 6.16648437 9.33601563 6.95796875 9.86328125 7.7734375 C11 10 11 10 11 13 C11.66 13 12.32 13 13 13 C13.33 15.97 13.66 18.94 14 22 C13.67 21.01 13.34 20.02 13 19 C12.175 18.731875 11.35 18.46375 10.5 18.1875 C9.675 17.795625 8.85 17.40375 8 17 C7.1875 13.875 7.1875 13.875 7 11 C6.34 11 5.68 11 5 11 C5 9.68 5 8.36 5 7 C3.35 6.67 1.7 6.34 0 6 C0 4.02 0 2.04 0 0 Z " fill="#5DBA07" transform="translate(256,115)"/>
<path d="M0 0 C5.17930997 1.24303439 8.70166639 2.85487785 13 6 C12.67 8.64 12.34 11.28 12 14 C11.34 14 10.68 14 10 14 C10 14.66 10 15.32 10 16 C9.34 16 8.68 16 8 16 C7.95101562 16.63808594 7.90203125 17.27617187 7.8515625 17.93359375 C7.77679688 18.75988281 7.70203125 19.58617187 7.625 20.4375 C7.55539063 21.26121094 7.48578125 22.08492187 7.4140625 22.93359375 C7.27742188 23.61550781 7.14078125 24.29742187 7 25 C6.34 25.33 5.68 25.66 5 26 C4.34444881 28.52733235 4.34444881 28.52733235 4 31 C3.34 31 2.68 31 2 31 C2 31.66 2 32.32 2 33 C-1.37462715 32.45276317 -3.08235 31.9451 -6 30 C-3.69 30 -1.38 30 1 30 C2.3417678 26.73256344 3.67194359 23.46053092 5 20.1875 C5.3815625 19.25873047 5.763125 18.32996094 6.15625 17.37304688 C6.5171875 16.48037109 6.878125 15.58769531 7.25 14.66796875 C7.75273438 13.43469849 7.75273438 13.43469849 8.265625 12.17651367 C9.15985056 9.90908534 9.15985056 9.90908534 9 7 C7.00184197 5.34063127 7.00184197 5.34063127 4.5 3.875 C2.98742349 2.93664235 1.48376208 1.98328677 0 1 C0 0.67 0 0.34 0 0 Z " fill="#9AE255" transform="translate(58,120)"/>
<path d="M0 0 C-1.32 0.33 -2.64 0.66 -4 1 C-4 0.34 -4 -0.32 -4 -1 C-5.299375 -0.979375 -6.59875 -0.95875 -7.9375 -0.9375 C-9.29165633 -0.91600546 -10.64756083 -0.92851801 -12 -1 C-12.495 -1.495 -12.495 -1.495 -13 -2 C-23.24498943 -2.49665676 -34.00086037 -2.99956981 -43.375 1.6875 C-46.35512876 3.17756438 -46.97213679 2.95989706 -50 2 C-35.70224743 -5.97374663 -14.45305523 -9.63537015 0 0 Z " fill="#9CE458" transform="translate(351,22)"/>
<path d="M0 0 C2.26766183 1.12571279 4.52238653 2.27113998 6.76953125 3.4375 C8.27580078 4.2109375 8.27580078 4.2109375 9.8125 5 C10.80894531 5.515625 11.80539062 6.03125 12.83203125 6.5625 C19.1319788 9.42116917 24.62947681 10.30392884 31.4375 10.1875 C32.50581055 10.1865332 32.50581055 10.1865332 33.59570312 10.18554688 C38.46820092 10.14571719 43.17570746 9.67986084 48 9 C40.34204397 14.10530402 30.88464362 13.7480833 22 13 C14.33316528 11.23146581 6.2283847 7.7328198 1 1.6875 C0.67 1.130625 0.34 0.57375 0 0 Z " fill="#BECCB3" transform="translate(360,231)"/>
<path d="M0 0 C0.92553743 3.13850064 1.11664647 5.93680778 1.09765625 9.203125 C1.09443359 10.1828125 1.09121094 11.1625 1.08789062 12.171875 C1.07951172 13.18765625 1.07113281 14.2034375 1.0625 15.25 C1.05798828 16.28125 1.05347656 17.3125 1.04882812 18.375 C1.03706088 20.91672573 1.02062011 23.45833319 1 26 C1.66 26.33 2.32 26.66 3 27 C4.3270946 30.48926574 5.44427443 34.02814459 6.5859375 37.58203125 C7.98130004 40.95479981 9.24380117 42.67189163 12 45 C11.67 45.66 11.34 46.32 11 47 C2.47578249 37.88106964 -2.39553065 27.6611668 -2.25 15 C-2.25773437 14.32710937 -2.26546875 13.65421875 -2.2734375 12.9609375 C-2.25525057 8.25052382 -1.45200533 4.42515911 0 0 Z " fill="#BFED8F" transform="translate(348,184)"/>
<path d="M0 0 C5.12409049 0.90425126 9.64261632 2.09507755 14 5 C21.18495105 6.14355077 28.30120089 6.11939987 35.5625 6.0625 C36.66658203 6.05798828 37.77066406 6.05347656 38.90820312 6.04882812 C41.605527 6.0371514 44.30273347 6.02077525 47 6 C35.79915578 11.80364542 21.88410906 9.60206188 10.2421875 6.15625 C6.45101694 4.80421809 3.31674978 3.26509741 0 1 C0 0.67 0 0.34 0 0 Z " fill="#9AE356" transform="translate(299,122)"/>
<path d="M0 0 C2.31 0 4.62 0 7 0 C7 0.66 7 1.32 7 2 C9.97 2.33 12.94 2.66 16 3 C16 3.66 16 4.32 16 5 C17.32 5 18.64 5 20 5 C20.33 6.65 20.66 8.3 21 10 C21.99 10.33 22.98 10.66 24 11 C28 15.34285714 28 15.34285714 28 19 C27.34 19 26.68 19 26 19 C25.731875 18.360625 25.46375 17.72125 25.1875 17.0625 C24.11332248 14.66868314 24.11332248 14.66868314 21 14 C19.8125 11.9375 19.8125 11.9375 19 10 C18.01 10 17.02 10 16 10 C16 9.01 16 8.02 16 7 C15.43152344 6.90203125 14.86304688 6.8040625 14.27734375 6.703125 C8.77085969 5.63676081 4.7268801 4.01715751 0 1 C0 0.67 0 0.34 0 0 Z " fill="#56A70A" transform="translate(392,157)"/>
<path d="M0 0 C0.99 0.33 1.98 0.66 3 1 C4.64039513 4.79880978 5.11717047 7.89903367 5 12 C5.33 12.33 5.66 12.66 6 13 C7.28332999 34.01715834 7.28332999 34.01715834 2 42 C1.01 42.495 1.01 42.495 0 43 C-0.3932186 39.06781399 0.00259152 36.7501035 2 33.4375 C5.21797293 27.47108044 5.14732 20.12620508 3.3515625 13.66796875 C2.84062603 12.38556879 2.30297559 11.11336346 1.734375 9.85546875 C0.4682031 6.65636422 0.30442694 3.40958172 0 0 Z " fill="#53AB05" transform="translate(420,176)"/>
<path d="M0 0 C-0.58007812 0.24234375 -1.16015625 0.4846875 -1.7578125 0.734375 C-6.51779084 2.77660993 -10.79001831 4.93819513 -15 8 C-15.86625 8.61875 -16.7325 9.2375 -17.625 9.875 C-20.33090669 12.29607441 -22.01048333 14.98142298 -24 18 C-24.66 18 -25.32 18 -26 18 C-26.28875 18.78375 -26.5775 19.5675 -26.875 20.375 C-28 23 -28 23 -30 25 C-29.04187281 17.33498252 -25.40185646 11.51300509 -19.48828125 6.6796875 C-5.98044874 -2.43862958 -5.98044874 -2.43862958 0 0 Z " fill="#3A6F08" transform="translate(217,107)"/>
<path d="M0 0 C1.66611905 -0.042721 3.33382885 -0.04063832 5 0 C5.33 0.33 5.66 0.66 6 1 C8.32817964 1.36760731 10.6618385 1.70241581 13 2 C13 2.66 13 3.32 13 4 C20.92 4 28.84 4 37 4 C31.0676151 7.95492327 23.05533809 7.40259307 16.17578125 6.49609375 C10.30080793 5.30361776 5.3036373 3.84351639 0 1 C0 0.67 0 0.34 0 0 Z " fill="#92E04A" transform="translate(203,189)"/>
<path d="M0 0 C-0.99 0.33 -1.98 0.66 -3 1 C-0.36 1 2.28 1 5 1 C-1.64654782 5.43103188 -8.02764074 7.59054513 -16 7 C-15.34 7.66 -14.68 8.32 -14 9 C-15.8125 9.625 -15.8125 9.625 -18 10 C-18.99 9.34 -19.98 8.68 -21 8 C-6.78101541 -2.1705237 -6.78101541 -2.1705237 0 0 Z " fill="#3C5B21" transform="translate(82,16)"/>
<path d="M0 0 C2 3.75 2 3.75 2 6 C1.01 6 0.02 6 -1 6 C-1 7.65 -1 9.3 -1 11 C-1.66 11 -2.32 11 -3 11 C-3 11.66 -3 12.32 -3 13 C-3.66 13 -4.32 13 -5 13 C-4.98839844 13.64324219 -4.97679687 14.28648437 -4.96484375 14.94921875 C-4.89098005 22.34614069 -5.34421605 29.63414095 -6 37 C-6.33 37 -6.66 37 -7 37 C-9.35306145 22.88163128 -6.84368849 12.52524119 0 0 Z " fill="#A1E262" transform="translate(10,170)"/>
<path d="M0 0 C3 0 3 0 4.60546875 1.4609375 C5.12753906 2.09257813 5.64960937 2.72421875 6.1875 3.375 C6.71730469 4.00148438 7.24710938 4.62796875 7.79296875 5.2734375 C9 7 9 7 9 9 C11.39719432 9.67958603 11.39719432 9.67958603 14 10 C14.66 9.34 15.32 8.68 16 8 C16.33 8.66 16.66 9.32 17 10 C19.52733235 10.65555119 19.52733235 10.65555119 22 11 C22 10.34 22 9.68 22 9 C22.66 9 23.32 9 24 9 C24 11.64 24 14.28 24 17 C14.40445948 14.22234353 6.27208432 9.93646424 0 2 C0 1.34 0 0.68 0 0 Z " fill="#61CB05" transform="translate(48,109)"/>
<path d="M0 0 C1.41687119 4.25061356 0.19320039 6.71851625 -1 11 C-0.27079346 11.27183105 0.45841309 11.54366211 1.2097168 11.82373047 C3.89807493 12.95703255 6.19033716 14.2509639 8.64453125 15.8203125 C9.90620117 16.62275391 9.90620117 16.62275391 11.19335938 17.44140625 C12.05767578 17.99699219 12.92199219 18.55257812 13.8125 19.125 C14.69615234 19.68832031 15.57980469 20.25164062 16.49023438 20.83203125 C18.66257413 22.21763174 20.83237083 23.60704634 23 25 C19.98968256 25.93423645 19.13349732 26.04449911 16 25 C16 24.01 16 23.02 16 22 C14.865625 21.731875 13.73125 21.46375 12.5625 21.1875 C11.386875 20.795625 10.21125 20.40375 9 20 C8.67 19.01 8.34 18.02 8 17 C6.906875 16.690625 5.81375 16.38125 4.6875 16.0625 C0.81734836 14.94737156 -0.81707293 14.3653459 -3 11 C-2.85222025 6.8621671 -2.13517533 3.55862555 0 0 Z " fill="#9DE558" transform="translate(156,86)"/>
<path d="M0 0 C0.66 0.33 1.32 0.66 2 1 C0.02 1.99 0.02 1.99 -2 3 C-1.34 2.01 -0.68 1.02 0 0 Z M-4 3 C-3.34 3.33 -2.68 3.66 -2 4 C-4.4136166 6.27409341 -6.83142138 8.54368549 -9.25 10.8125 C-9.93191406 11.45509766 -10.61382812 12.09769531 -11.31640625 12.75976562 C-11.98027344 13.38173828 -12.64414063 14.00371094 -13.328125 14.64453125 C-13.9355957 15.21534424 -14.54306641 15.78615723 -15.16894531 16.37426758 C-17.03860847 18.03427918 -18.98016795 19.52801815 -21 21 C-19.34643078 17.41726669 -17.32019297 14.19026533 -15 11 C-14.34 11 -13.68 11 -13 11 C-13 10.34 -13 9.68 -13 9 C-11.03125 7.4921875 -11.03125 7.4921875 -8.5 5.875 C-7.24703125 5.06675781 -7.24703125 5.06675781 -5.96875 4.2421875 C-5.3190625 3.83226562 -4.669375 3.42234375 -4 3 Z M-22 21 C-21.1875 22.6875 -21.1875 22.6875 -21 25 C-23.4375 27.75 -23.4375 27.75 -26 30 C-26.33 29.34 -26.66 28.68 -27 28 C-23.125 22.125 -23.125 22.125 -22 21 Z " fill="#5BBB03" transform="translate(77,31)"/>
<path d="M0 0 C1.17369141 -0.03673828 1.17369141 -0.03673828 2.37109375 -0.07421875 C7.59766828 -0.10022161 11.1442179 0.84281188 15.66162109 3.48876953 C17.94975362 4.67228636 19.84727228 4.69096596 22.375 4.375 C22.87 6.355 22.87 6.355 23.375 8.375 C21.725 8.375 20.075 8.375 18.375 8.375 C18.375 7.715 18.375 7.055 18.375 6.375 C17.68792969 6.24222656 17.00085938 6.10945313 16.29296875 5.97265625 C15.39191406 5.79605469 14.49085938 5.61945313 13.5625 5.4375 C12.66917969 5.26347656 11.77585938 5.08945313 10.85546875 4.91015625 C8.375 4.375 8.375 4.375 5.375 3.375 C2.64210707 3.14702438 -0.07542204 2.95831813 -2.8125 2.8125 C-3.56208984 2.76931641 -4.31167969 2.72613281 -5.08398438 2.68164062 C-6.93078375 2.57577315 -8.77786834 2.4749024 -10.625 2.375 C-7.57709477 -0.67290523 -4.08136995 0.00653019 0 0 Z " fill="#51A403" transform="translate(232.625,106.625)"/>
<path d="M0 0 C0 0.33 0 0.66 0 1 C-1.24136719 1.04898438 -2.48273438 1.09796875 -3.76171875 1.1484375 C-5.40366694 1.22349799 -7.04559297 1.29904439 -8.6875 1.375 C-9.50412109 1.4059375 -10.32074219 1.436875 -11.16210938 1.46875 C-15.54735732 1.68179848 -18.9715684 2.11815717 -23 4 C-24.49092714 4.39060249 -25.99150647 4.74645998 -27.5 5.0625 C-28.27214844 5.22621094 -29.04429687 5.38992187 -29.83984375 5.55859375 C-34.98918919 6.61081081 -34.98918919 6.61081081 -37 7 C-27.60236699 -1.79133411 -12.04644229 -2.78504904 0 0 Z " fill="#707967" transform="translate(237,101)"/>
<path d="M0 0 C-6.08790673 6.53886278 -12.25154344 8.6265106 -21.05566406 9.11376953 C-23.32957431 9.19281451 -25.59981058 9.23187004 -27.875 9.25 C-28.61266602 9.25926514 -29.35033203 9.26853027 -30.11035156 9.27807617 C-33.99635651 9.25537962 -36.62496883 8.88030782 -40 7 C-38.68386719 7.03480469 -37.36773437 7.06960937 -36.01171875 7.10546875 C-22.09665702 7.82529646 -22.09665702 7.82529646 -9 4 C-7.83253482 1.99367046 -7.83253482 1.99367046 -7 0 C-4.04680182 -1.23843794 -3.12561472 -1.04187157 0 0 Z " fill="#84A566" transform="translate(419,233)"/>
<path d="M0 0 C1.98 0 3.96 0 6 0 C6 0.99 6 1.98 6 3 C-0.625 7 -0.625 7 -4 7 C-4.33 7.99 -4.66 8.98 -5 10 C-8.17242648 11.31035007 -10.55881664 12 -14 12 C-12.56877218 10.51476358 -11.12979111 9.03699538 -9.6875 7.5625 C-8.88699219 6.73878906 -8.08648437 5.91507813 -7.26171875 5.06640625 C-5 3 -5 3 -2 2 C-2 2.66 -2 3.32 -2 4 C-1.34 3.67 -0.68 3.34 0 3 C0 2.01 0 1.02 0 0 Z " fill="#264A08" transform="translate(66,22)"/>
<path d="M0 0 C0.99 0.99 1.98 1.98 3 3 C1.60763532 7.73403991 -0.96817619 11.18908058 -5 14 C-8.375 14.375 -8.375 14.375 -11 14 C-10.61328125 13.56429687 -10.2265625 13.12859375 -9.828125 12.6796875 C-6.55780554 8.93986673 -3.68524734 5.17705142 -1 1 C-0.67 0.67 -0.34 0.34 0 0 Z " fill="#4A692A" transform="translate(425,219)"/>
<path d="M0 0 C0.33 0 0.66 0 1 0 C1.03738281 1.05058594 1.07476562 2.10117188 1.11328125 3.18359375 C1.42235392 10.21436877 1.75227386 16.54670962 4.3671875 23.16015625 C5.27349982 25.79517541 5.2117065 28.2478155 5 31 C5.66 31.33 6.32 31.66 7 32 C7.72159424 33.64363134 8.39351421 35.31050386 9 37 C6.625 38.5625 6.625 38.5625 4 40 C3.34 39.67 2.68 39.34 2 39 C3.32 38.34 4.64 37.68 6 37 C5.65066406 36.04738281 5.30132812 35.09476563 4.94140625 34.11328125 C4.48158334 32.84642221 4.02195838 31.5794913 3.5625 30.3125 C3.33240234 29.68666016 3.10230469 29.06082031 2.86523438 28.41601562 C0.40001942 21.59201482 -0.1361753 15.8680083 -0.0625 8.6875 C-0.05798828 7.85154297 -0.05347656 7.01558594 -0.04882812 6.15429688 C-0.03710548 4.10283351 -0.01917203 2.05140727 0 0 Z " fill="#9DE65A" transform="translate(272,65)"/>
<path d="M0 0 C0.66 0.33 1.32 0.66 2 1 C-0.64 3.64 -3.28 6.28 -6 9 C-4.35 8.34 -2.7 7.68 -1 7 C-1 9 -1 9 -3.3125 11.375 C-4.199375 12.24125 -5.08625 13.1075 -6 14 C-6.7734375 15.11375 -6.7734375 15.11375 -7.5625 16.25 C-9.29925377 18.36430894 -10.38724937 18.46569517 -13 19 C-11.03865358 10.3140373 -6.52986303 5.86830092 0 0 Z " fill="#537433" transform="translate(59,25)"/>
<path d="M0 0 C0.66 0.33 1.32 0.66 2 1 C1.195625 1.763125 0.39125 2.52625 -0.4375 3.3125 C-3.16799024 5.79430898 -3.16799024 5.79430898 -4 9 C-4.7425 9.20625 -5.485 9.4125 -6.25 9.625 C-10.56421714 11.78210857 -11.95704614 15.77499756 -14 20 C-15.32 20 -16.64 20 -18 20 C-17.42341728 16.10806661 -15.5000475 13.95460159 -13 11 C-12.34 10.01 -11.68 9.02 -11 8 C-10.06414062 7.76990234 -10.06414062 7.76990234 -9.109375 7.53515625 C-6.33507153 6.83130518 -5.19980648 5.49979532 -3.25 3.4375 C-2.63640625 2.79683594 -2.0228125 2.15617187 -1.390625 1.49609375 C-0.93171875 1.00238281 -0.4728125 0.50867188 0 0 Z " fill="#70D70A" transform="translate(198,108)"/>
<path d="M0 0 C0.66 0.33 1.32 0.66 2 1 C1.34 2.32 0.68 3.64 0 5 C-1.32 5 -2.64 5 -4 5 C-5.73662334 8.22515763 -6.8905928 11.51329166 -8 15 C-8.5775 14.360625 -9.155 13.72125 -9.75 13.0625 C-11.98062401 11.01776132 -13.07436391 10.41794801 -16 10 C-16.33 8.35 -16.66 6.7 -17 5 C-14.525 6.485 -14.525 6.485 -12 8 C-8.04 5.36 -4.08 2.72 0 0 Z " fill="#80D52F" transform="translate(272,105)"/>
<path d="M0 0 C0.99 0 1.98 0 3 0 C7.26230783 12.11288412 8.87002138 23.25508509 7 36 C6.67 36 6.34 36 6 36 C5.96036133 35.23856689 5.92072266 34.47713379 5.87988281 33.69262695 C5.68894563 30.23123129 5.46977845 26.77217914 5.25 23.3125 C5.188125 22.11431641 5.12625 20.91613281 5.0625 19.68164062 C4.98515625 18.52470703 4.9078125 17.36777344 4.828125 16.17578125 C4.7652832 15.11270752 4.70244141 14.04963379 4.63769531 12.9543457 C3.8732394 9.41273737 2.33085246 7.71768588 0 5 C-0.25 2.1875 -0.25 2.1875 0 0 Z " fill="#96DF4D" transform="translate(151,49)"/>
<path d="M0 0 C2.475 0.495 2.475 0.495 5 1 C1.81486574 4.43617933 -1.75209106 7.03153419 -5.625 9.625 C-10.0244434 12.54328853 -10.0244434 12.54328853 -14 16 C-14.33 14.35 -14.66 12.7 -15 11 C-13.68 11 -12.36 11 -11 11 C-11 10.34 -11 9.68 -11 9 C-10.01 9 -9.02 9 -8 9 C-7.67 7.35 -7.34 5.7 -7 4 C-6.01 4 -5.02 4 -4 4 C-3.67 3.34 -3.34 2.68 -3 2 C-2.01 2.33 -1.02 2.66 0 3 C0 2.01 0 1.02 0 0 Z " fill="#89E337" transform="translate(281,112)"/>
<path d="M0 0 C1.02337141 3.13195199 0.98860043 4.83996435 -0.1796875 7.90625 C-0.58356689 9.01444092 -0.58356689 9.01444092 -0.99560547 10.14501953 C-1.28580566 10.92216309 -1.57600586 11.69930664 -1.875 12.5 C-4.43738938 19.69244219 -5.96981095 26.30179336 -6 34 C-6.33 34 -6.66 34 -7 34 C-7.33590243 22.09412501 -6.81445323 10.22167985 0 0 Z " fill="#499506" transform="translate(49,52)"/>
<path d="M0 0 C0 0.66 0 1.32 0 2 C-1.08796875 2.03738281 -2.1759375 2.07476562 -3.296875 2.11328125 C-12.20385361 2.4880874 -20.41830558 3.37092599 -29 6 C-27.38211813 2.76423625 -24.65757338 2.10955447 -21.38671875 0.8203125 C-14.40683334 -0.87031718 -7.13129094 -0.27965847 0 0 Z " fill="#32590D" transform="translate(237,102)"/>
<path d="M0 0 C1.32 0.66 2.64 1.32 4 2 C4 2.99 4 3.98 4 5 C5.32 4.67 6.64 4.34 8 4 C5.65742176 10.637305 2.89887512 13.84535849 -3.375 17.3125 C-4.179375 17.6528125 -4.179375 17.6528125 -5 18 C-3.55922954 14.63820226 -1.75249979 12.40843732 1 10 C1.66 10 2.32 10 3 10 C2.01 6.7 1.02 3.4 0 0 Z " fill="#A5E167" transform="translate(361,154)"/>
<path d="M0 0 C0.99 0.495 0.99 0.495 2 1 C3.03526464 4.66929238 3.13468337 8.20411826 3.125 12 C3.12757813 13.010625 3.13015625 14.02125 3.1328125 15.0625 C3.00826727 17.81714744 2.62110865 20.31838803 2 23 C0 21 0 21 -0.22705078 18.84521484 C-0.21657715 17.97590332 -0.20610352 17.1065918 -0.1953125 16.2109375 C-0.18886719 15.26992187 -0.18242187 14.32890625 -0.17578125 13.359375 C-0.15902344 12.37453125 -0.14226562 11.3896875 -0.125 10.375 C-0.11597656 9.38242188 -0.10695313 8.38984375 -0.09765625 7.3671875 C-0.07404116 4.91121866 -0.04110799 2.45572832 0 0 Z " fill="#5A5F55" transform="translate(432,187)"/>
<path d="M0 0 C0.66 1.32 1.32 2.64 2 4 C1.01 5.485 1.01 5.485 0 7 C-2.07443835 12.79798057 -2.41339424 18.31415829 -2.625 24.4375 C-2.66367187 25.35982422 -2.70234375 26.28214844 -2.7421875 27.23242188 C-2.83568676 29.48809143 -2.9214391 31.74376916 -3 34 C-3.33 34 -3.66 34 -4 34 C-4.05883728 30.52090629 -4.09387399 27.04194326 -4.125 23.5625 C-4.14175781 22.58861328 -4.15851563 21.61472656 -4.17578125 20.61132812 C-4.22457986 13.31593655 -4.14448028 6.21672042 0 0 Z " fill="#74D51B" transform="translate(352,176)"/>
<path d="M0 0 C0.66 0 1.32 0 2 0 C-0.19110447 9.25132997 -6.68405047 16.32640649 -14 22 C-14 20.35 -14 18.7 -14 17 C-12.68 17 -11.36 17 -10 17 C-10 16.34 -10 15.68 -10 15 C-9.34 15 -8.68 15 -8 15 C-8 14.01 -8 13.02 -8 12 C-7.34 12 -6.68 12 -6 12 C-6 11.34 -6 10.68 -6 10 C-5.34 10 -4.68 10 -4 10 C-3.7834375 9.1028125 -3.7834375 9.1028125 -3.5625 8.1875 C-3.1127561 6.43849596 -2.57107659 4.71322977 -2 3 C-1.34 3 -0.68 3 0 3 C0 2.01 0 1.02 0 0 Z " fill="#9DE456" transform="translate(379,96)"/>
<path d="M0 0 C3.99452176 1.36955032 6.92159754 3.0926199 10 6 C10.8125 8.25 10.8125 8.25 11 10 C8.25 10.75 8.25 10.75 5 11 C2.625 9.1875 2.625 9.1875 1 7 C1 6.34 1 5.68 1 5 C1.99 5 2.98 5 4 5 C3.67 4.34 3.34 3.68 3 3 C2.01 3 1.02 3 0 3 C0 2.01 0 1.02 0 0 Z " fill="#479805" transform="translate(126,20)"/>
<path d="M0 0 C-7.30527529 4.87018353 -18.01444412 5.09687912 -26.47265625 3.546875 C-28.33011179 3.088244 -30.16840329 2.55293486 -32 2 C-29.09031691 1.16087482 -26.5469594 0.89148572 -23.5234375 0.9375 C-22.27046875 0.94910156 -22.27046875 0.94910156 -20.9921875 0.9609375 C-20.12851562 0.97382813 -19.26484375 0.98671875 -18.375 1 C-16.65370809 1.0254629 -14.93234349 1.04651171 -13.2109375 1.0625 C-12.45087402 1.07410156 -11.69081055 1.08570313 -10.90771484 1.09765625 C-7.20458207 0.90809225 -3.96414093 -0.07341002 0 0 Z " fill="#A9E86F" transform="translate(66,239)"/>
<path d="M0 0 C0.99 0 1.98 0 3 0 C2.08400261 6.22878226 -0.31091268 10.79599068 -5 15 C-5.78287497 8.89357521 -3.10825151 4.99540421 0 0 Z " fill="#235206" transform="translate(188,119)"/>
<path d="M0 0 C5.96564796 0.50771472 10.63809899 2.38592128 16 5 C15.01 5.66 14.02 6.32 13 7 C12.67 6.67 12.34 6.34 12 6 C9.44380996 5.9684421 6.90219659 6.06826631 4.34765625 6.16015625 C2 6 2 6 0 4 C0.66 3.67 1.32 3.34 2 3 C2 2.34 2 1.68 2 1 C1.34 0.67 0.68 0.34 0 0 Z " fill="#6B9A3D" transform="translate(110,14)"/>
<path d="M0 0 C5.17930997 1.24303439 8.70166639 2.85487785 13 6 C12.67 8.64 12.34 11.28 12 14 C11.34 14 10.68 14 10 14 C9.67 14.66 9.34 15.32 9 16 C9.10441406 15.41992188 9.20882812 14.83984375 9.31640625 14.2421875 C9.59277049 11.58382676 9.64894167 9.60424959 9 7 C6.80618385 4.92164785 4.60601122 3.55889512 1.96875 2.09375 C1.3190625 1.7328125 0.669375 1.371875 0 1 C0 0.67 0 0.34 0 0 Z " fill="#80DF2E" transform="translate(58,120)"/>
<path d="M0 0 C2.475 0.495 2.475 0.495 5 1 C5.33 1.99 5.66 2.98 6 4 C6.763125 3.814375 7.52625 3.62875 8.3125 3.4375 C11 3 11 3 14 4 C14 4.66 14 5.32 14 6 C15.32 6.33 16.64 6.66 18 7 C16.3828125 8.16796875 16.3828125 8.16796875 14 9 C11.0546875 7.98828125 11.0546875 7.98828125 7.875 6.3125 C6.82054687 5.77238281 5.76609375 5.23226562 4.6796875 4.67578125 C2 3 2 3 0 0 Z " fill="#6FC61F" transform="translate(362,231)"/>
<path d="M0 0 C2.25 0.125 2.25 0.125 5 1 C7.3125 4.0625 7.3125 4.0625 9 7 C6.21176345 8.0326802 5.1322726 8.04509293 2.25 7.0625 C1.5075 6.711875 0.765 6.36125 0 6 C0 4.02 0 2.04 0 0 Z " fill="#52B303" transform="translate(256,115)"/>
<path d="M0 0 C4 0 4 0 6.1875 2.125 C8.12517067 5.19854658 8.66634999 7.41326239 9 11 C9.66 11 10.32 11 11 11 C11.33 12.65 11.66 14.3 12 16 C8.5803498 13.75953952 7.04545631 11.4943212 5 8 C4.29875 7.319375 3.5975 6.63875 2.875 5.9375 C0.90267413 3.89942993 0.39451798 2.76162584 0 0 Z " fill="#4C8C10" transform="translate(412,163)"/>
<path d="M0 0 C2.5 1.375 2.5 1.375 5 3 C5 3.66 5 4.32 5 5 C5.66 5 6.32 5 7 5 C7.33 6.65 7.66 8.3 8 10 C9.32 10 10.64 10 12 10 C12.33 11.65 12.66 13.3 13 15 C7.27042391 12.53905873 3.22073605 7.54762306 0.5625 2 C0.376875 1.34 0.19125 0.68 0 0 Z " fill="#98E352" transform="translate(8,218)"/>
<path d="M0 0 C0.66 0 1.32 0 2 0 C2.31453125 0.96421875 2.6290625 1.9284375 2.953125 2.921875 C3.38479815 4.19812604 3.81712445 5.47415629 4.25 6.75 C4.45496094 7.38421875 4.65992188 8.0184375 4.87109375 8.671875 C6.25148768 12.68756642 7.75434019 15.25367247 11 18 C10.67 18.66 10.34 19.32 10 20 C0.23972603 9.29623288 0.23972603 9.29623288 -0.25 2.5625 C-0.1675 1.716875 -0.085 0.87125 0 0 Z " fill="#B0E77C" transform="translate(349,211)"/>
<path d="M0 0 C0.99 0.33 1.98 0.66 3 1 C3 2.32 3 3.64 3 5 C4.1446875 5.185625 4.1446875 5.185625 5.3125 5.375 C8 6 8 6 11 8 C11.6875 10.625 11.6875 10.625 12 13 C8.34683329 11.75023244 7.21934164 11.32901247 5 8 C4.01 7.67 3.02 7.34 2 7 C0.8125 3.4375 0.8125 3.4375 0 0 Z " fill="#5AB506" transform="translate(188,171)"/>
<path d="M0 0 C0 0.33 0 0.66 0 1 C-0.61488281 1.12117187 -1.22976562 1.24234375 -1.86328125 1.3671875 C-2.67152344 1.53476563 -3.47976562 1.70234375 -4.3125 1.875 C-5.51326172 2.11863281 -5.51326172 2.11863281 -6.73828125 2.3671875 C-9.25301118 2.94478999 -9.25301118 2.94478999 -12 5 C-13.88154883 5.44111565 -15.78062638 5.8109267 -17.6875 6.125 C-18.68136719 6.29257813 -19.67523437 6.46015625 -20.69921875 6.6328125 C-21.45847656 6.75398437 -22.21773437 6.87515625 -23 7 C-16.83241583 0.30910566 -8.5087174 -0.14421555 0 0 Z " fill="#94E24F" transform="translate(48,150)"/>
<path d="M0 0 C3.34877596 2.2325173 3.77841682 3.23621814 5.1875 6.875 C5.70376953 8.17050781 5.70376953 8.17050781 6.23046875 9.4921875 C7 12 7 12 7 16 C7.66 16 8.32 16 9 16 C9.33 17.65 9.66 19.3 10 21 C4.15806108 15.69367595 0.63887247 7.87942718 0 0 Z " fill="#9CDD5F" transform="translate(38,88)"/>
<path d="M0 0 C1.65 0 3.3 0 5 0 C1.85177801 3.56695102 -1.30063614 5.31721434 -5.625 7.25 C-7.34589844 8.03117188 -7.34589844 8.03117188 -9.1015625 8.828125 C-12 10 -12 10 -14 10 C-14 9.01 -14 8.02 -14 7 C-12.02 7 -10.04 7 -8 7 C-8 6.34 -8 5.68 -8 5 C-5.09399739 3.74335022 -3.20395416 3 0 3 C0 2.01 0 1.02 0 0 Z " fill="#97E251" transform="translate(129,122)"/>
<path d="M0 0 C0.6875 1.75 0.6875 1.75 1 4 C-0.3125 6.25 -0.3125 6.25 -2 8 C-2.66 8 -3.32 8 -4 8 C-5.96301592 11.50538557 -6.95902388 15.13351728 -8 19 C-8.90778139 16.54899025 -9.08511471 15.27855724 -8.3125 12.75 C-7.879375 11.8425 -7.44625 10.935 -7 10 C-6.69578125 9.33097656 -6.3915625 8.66195312 -6.078125 7.97265625 C-3.39327261 2.26218174 -3.39327261 2.26218174 0 0 Z " fill="#366E07" transform="translate(51,43)"/>
<path d="M0 0 C6.90646042 3.23281126 11.1365297 8.22118269 16 14 C15 16 15 16 13 17 C12.34 14.69 11.68 12.38 11 10 C9.35 9.67 7.7 9.34 6 9 C5.67 8.01 5.34 7.02 5 6 C3.33729713 4.66172696 1.67083819 3.32810215 0 2 C0 1.34 0 0.68 0 0 Z " fill="#9EE458" transform="translate(360,27)"/>
<path d="M0 0 C0.33 0 0.66 0 1 0 C2.30119371 8.77426571 3.10916396 19.33625405 -2 27 C-2.33 25.02 -2.66 23.04 -3 21 C-2.34 21 -1.68 21 -1 21 C-0.67 14.07 -0.34 7.14 0 0 Z " fill="#AFE273" transform="translate(94,186)"/>
<path d="M0 0 C0.99 0 1.98 0 3 0 C4.0044134 2.2898234 5.00367612 4.5816599 6 6.875 C6.28617187 7.52597656 6.57234375 8.17695313 6.8671875 8.84765625 C9 13.7734375 9 13.7734375 9 16 C8.34 16 7.68 16 7 16 C4.78252188 13.69723426 4.03239994 12.47519908 3.8125 9.25 C3.9053125 8.13625 3.9053125 8.13625 4 7 C3.34 7 2.68 7 2 7 C0.5393715 4.35261084 0 3.10551666 0 0 Z " fill="#92E146" transform="translate(359,120)"/>
<path d="M0 0 C0.33 0.66 0.66 1.32 1 2 C3.32156597 2.40729228 5.6568787 2.74438677 8 3 C8.33 4.32 8.66 5.64 9 7 C8.34 7 7.68 7 7 7 C7 6.34 7 5.68 7 5 C-0.7527507 3.48462814 -8.10042938 2.72009395 -16 3 C-15.67 2.34 -15.34 1.68 -15 1 C-12.45058627 0.68758629 -9.99638487 0.48696579 -7.4375 0.375 C-6.72658203 0.33632812 -6.01566406 0.29765625 -5.28320312 0.2578125 C-3.52257575 0.16328217 -1.76132272 0.08054183 0 0 Z " fill="#5BBC03" transform="translate(240,109)"/>
<path d="M0 0 C0.66 0.33 1.32 0.66 2 1 C1.113125 1.721875 0.22625 2.44375 -0.6875 3.1875 C-3.62918752 5.63890627 -6.32541339 8.25683424 -9 11 C-10.66666667 12.66666667 -12.33333333 14.33333333 -14 16 C-12.91107438 9.82942149 -12.91107438 9.82942149 -10.34375 7.4921875 C-9.10359043 6.64338976 -7.84203858 5.8247761 -6.55859375 5.04296875 C-4.83005345 4.07230142 -4.83005345 4.07230142 -4 2 C-2.0625 0.8125 -2.0625 0.8125 0 0 Z " fill="#346209" transform="translate(66,27)"/>
<path d="M0 0 C0.33 0.66 0.66 1.32 1 2 C1.99 2.33 2.98 2.66 4 3 C4 3.66 4 4.32 4 5 C2.35333797 4.8864371 0.70763918 4.75882619 -0.9375 4.625 C-2.31228516 4.52058594 -2.31228516 4.52058594 -3.71484375 4.4140625 C-4.84599609 4.20910156 -4.84599609 4.20910156 -6 4 C-6.33 3.34 -6.66 2.68 -7 2 C-7.99 1.34 -8.98 0.68 -10 0 C-3.34250344 -1.36176066 -3.34250344 -1.36176066 0 0 Z " fill="#458E03" transform="translate(126,20)"/>
<path d="M0 0 C0.66 0.33 1.32 0.66 2 1 C1.401875 1.721875 0.80375 2.44375 0.1875 3.1875 C-2.00382688 5.87813612 -2.00382688 5.87813612 -3.5 8.5625 C-5.06719945 11.1091991 -6.81848035 12.96892998 -9 15 C-7.74796306 7.69645118 -5.83713101 4.44129533 0 0 Z " fill="#468B05" transform="translate(59,37)"/>
<path d="M0 0 C2 3.75 2 3.75 2 6 C1.01 6 0.02 6 -1 6 C-1 7.65 -1 9.3 -1 11 C-1.66 11 -2.32 11 -3 11 C-3 11.66 -3 12.32 -3 13 C-3.99 13.33 -4.98 13.66 -6 14 C-4.45941767 8.98491285 -2.97068161 4.3852919 0 0 Z " fill="#8FE243" transform="translate(10,170)"/>
<path d="M0 0 C4.5503959 3.91839647 7.24859663 8.2112707 9 14 C8.67 14.66 8.34 15.32 8 16 C7.01 15.34 6.02 14.68 5 14 C4.8125 11.375 4.8125 11.375 5 9 C4.01 9 3.02 9 2 9 C1.34 6.03 0.68 3.06 0 0 Z " fill="#94E348" transform="translate(84,166)"/>
<path d="M0 0 C0.66 0.33 1.32 0.66 2 1 C1.01 1.66 0.02 2.32 -1 3 C-0.34 3.33 0.32 3.66 1 4 C1 4.66 1 5.32 1 6 C-1.64 6 -4.28 6 -7 6 C-6.34 6.66 -5.68 7.32 -5 8 C-6.8125 8.625 -6.8125 8.625 -9 9 C-9.99 8.34 -10.98 7.68 -12 7 C-10.56542672 6.0165504 -9.12722594 5.03839079 -7.6875 4.0625 C-6.88699219 3.51722656 -6.08648437 2.97195312 -5.26171875 2.41015625 C-3 1 -3 1 0 0 Z " fill="#637F46" transform="translate(73,17)"/>
<path d="M0 0 C0 0.66 0 1.32 0 2 C-0.66 2 -1.32 2 -2 2 C-2 2.99 -2 3.98 -2 5 C-3.65 5 -5.3 5 -7 5 C-7 5.66 -7 6.32 -7 7 C-11.455 7.495 -11.455 7.495 -16 8 C-13.87682683 5.87682683 -12.30392909 5.15239055 -9.5625 4 C-0.078125 0 -0.078125 0 0 0 Z " fill="#55AE05" transform="translate(408,232)"/>
<path d="M0 0 C1.2878472 2.92692546 0.94932225 4.15501429 -0.0625 7.25 C-2.08203079 11.60048454 -5.01156855 15.27654981 -8 19 C-8.33 18.34 -8.66 17.68 -9 17 C-8.07421875 14.65234375 -8.07421875 14.65234375 -6.6875 11.9375 C-6.23761719 11.03902344 -5.78773438 10.14054688 -5.32421875 9.21484375 C-4 7 -4 7 -2 6 C-1.27306096 4.02111039 -0.60183749 2.02045442 0 0 Z " fill="#428105" transform="translate(427,209)"/>
<path d="M0 0 C0.33 0.99 0.66 1.98 1 3 C1.66 3 2.32 3 3 3 C3 4.98 3 6.96 3 9 C2.34 9 1.68 9 1 9 C0.87625 8.360625 0.7525 7.72125 0.625 7.0625 C0.315625 6.0415625 0.315625 6.0415625 0 5 C-0.66 4.67 -1.32 4.34 -2 4 C-1.34 2.68 -0.68 1.36 0 0 Z M-5 3 C-2 4 -2 4 -0.75 5.875 C0 8 0 8 -1 11 C-5 5.25 -5 5.25 -5 3 Z " fill="#76C92A" transform="translate(190,167)"/>
<path d="M0 0 C3.65316671 1.24976756 4.78065836 1.67098753 7 5 C4.31143576 6.00821159 2.58296785 6.22736824 -0.11328125 5.17578125 C-2.10794931 4.16604698 -4.0646772 3.11893353 -6 2 C-3 1 -3 1 0 2 C0 1.34 0 0.68 0 0 Z " fill="#5C9921" transform="translate(248,106)"/>
<path d="M0 0 C0.66 0.33 1.32 0.66 2 1 C0.58707905 5.8274799 -1.42974154 9.7162359 -4 14 C-4.33 14 -4.66 14 -5 14 C-5 12.35 -5 10.7 -5 9 C-4.34 9 -3.68 9 -3 9 C-3.33 7.68 -3.66 6.36 -4 5 C-3.01 5 -2.02 5 -1 5 C-0.67 3.35 -0.34 1.7 0 0 Z " fill="#8EE044" transform="translate(268,163)"/>
<path d="M0 0 C0.66 0 1.32 0 2 0 C2.99 2.97 3.98 5.94 5 9 C4.01 9.99 3.02 10.98 2 12 C1.4654744 10.75579353 0.94791389 9.50429064 0.4375 8.25 C0.14746094 7.55390625 -0.14257812 6.8578125 -0.44140625 6.140625 C-1.07831803 3.69987216 -0.80248831 2.3596345 0 0 Z " fill="#4A9902" transform="translate(42,88)"/>
<path d="M0 0 C2.56136221 2.56136221 2.29666857 3.66561331 2.4140625 7.2265625 C2.45273437 8.2578125 2.49140625 9.2890625 2.53125 10.3515625 C2.5621875 11.43179688 2.593125 12.51203125 2.625 13.625 C2.66367187 14.71296875 2.70234375 15.8009375 2.7421875 16.921875 C2.83666247 19.61441165 2.92222431 22.30693757 3 25 C2.01 25 1.02 25 0 25 C0 16.75 0 8.5 0 0 Z " fill="#2E4B14" transform="translate(430,186)"/>
<path d="M0 0 C6.31631828 0.40316925 10.64993984 2.71232131 16 6 C12.90279155 6.87840996 11.09354597 6.99435406 8 6 C8 5.34 8 4.68 8 4 C7.34 4 6.68 4 6 4 C6 3.34 6 2.68 6 2 C3.03 1.505 3.03 1.505 0 1 C0 0.67 0 0.34 0 0 Z " fill="#9AB584" transform="translate(400,156)"/>
<path d="M0 0 C0.99 0 1.98 0 3 0 C3.53394179 1.4117783 4.05165104 2.82970244 4.5625 4.25 C4.85253906 5.03890625 5.14257812 5.8278125 5.44140625 6.640625 C6.04522837 9.19103452 5.8473932 10.55322229 5 13 C3.99088542 11.20963542 2.98177083 9.41927083 1.97265625 7.62890625 C1.1027487 6.02121854 1.1027487 6.02121854 0 5 C-0.04063832 3.33382885 -0.042721 1.66611905 0 0 Z " fill="#89D044" transform="translate(151,49)"/>
<path d="M0 0 C-0.72445312 0.25394531 -1.44890625 0.50789063 -2.1953125 0.76953125 C-7.30975622 2.59027321 -12.16277023 4.51936935 -17 7 C-17.66 7 -18.32 7 -19 7 C-19 6.34 -19 5.68 -19 5 C-6.17056146 -1.8645827 -6.17056146 -1.8645827 0 0 Z " fill="#346108" transform="translate(91,18)"/>
<path d="M0 0 C-2.83430453 3.2542015 -4.68607774 4.5206753 -9 5 C-8.8125 3.125 -8.8125 3.125 -8 1 C-4.70594381 -0.82039948 -3.63772813 -1.21257604 0 0 Z " fill="#718361" transform="translate(419,233)"/>
<path d="M0 0 C0.66 0 1.32 0 2 0 C2 0.66 2 1.32 2 2 C2.99 2.33 3.98 2.66 5 3 C9 7.34285714 9 7.34285714 9 11 C8.34 11 7.68 11 7 11 C6.731875 10.360625 6.46375 9.72125 6.1875 9.0625 C5.11332248 6.66868314 5.11332248 6.66868314 2 6 C0.8125 2.9375 0.8125 2.9375 0 0 Z " fill="#53AC03" transform="translate(411,165)"/>
<path d="M0 0 C1.03719328 3.21456356 0.94068337 5.40925583 0.1875 8.6875 C0.01605469 9.47511719 -0.15539063 10.26273438 -0.33203125 11.07421875 C-1 13 -1 13 -3 14 C-3 9.71 -3 5.42 -3 1 C-2.01 1.495 -2.01 1.495 -1 2 C-0.67 1.34 -0.34 0.68 0 0 Z " fill="#326B05" transform="translate(41,63)"/>
<path d="M0 0 C0.99 0.33 1.98 0.66 3 1 C3 3.64 3 6.28 3 9 C3.66 9.33 4.32 9.66 5 10 C5.33 10.66 5.66 11.32 6 12 C5.01 13.485 5.01 13.485 4 15 C3.32532438 13.25307205 2.66055844 11.50231475 2 9.75 C1.62875 8.77546875 1.2575 7.8009375 0.875 6.796875 C0 4 0 4 0 0 Z " fill="#84BC53" transform="translate(180,155)"/>
<path d="M0 0 C0.33 0.99 0.66 1.98 1 3 C0.278125 3.70125 -0.44375 4.4025 -1.1875 5.125 C-3.99823813 7.92770745 -6.49516226 10.92262792 -9 14 C-9.66 13.34 -10.32 12.68 -11 12 C-10.04882866 10.8274869 -9.08882991 9.66212985 -8.125 8.5 C-7.32449219 7.52546875 -7.32449219 7.52546875 -6.5078125 6.53125 C-6.01023437 6.0259375 -5.51265625 5.520625 -5 5 C-4.34 5 -3.68 5 -3 5 C-2.87625 4.360625 -2.7525 3.72125 -2.625 3.0625 C-2.41875 2.381875 -2.2125 1.70125 -2 1 C-1.34 0.67 -0.68 0.34 0 0 Z " fill="#56B105" transform="translate(419,219)"/>
<path d="M0 0 C-0.66498383 4.38889325 -2.18757677 7.9811485 -4 12 C-4.33 12 -4.66 12 -5 12 C-5.36666667 4.66666667 -5.36666667 4.66666667 -3.625 1.5 C-2 0 -2 0 0 0 Z " fill="#93E349" transform="translate(82,134)"/>
<path d="M0 0 C0 1.65 0 3.3 0 5 C0.99 5 1.98 5 3 5 C2.67 5.99 2.34 6.98 2 8 C-0.9375 6.6875 -0.9375 6.6875 -4 5 C-4.33 4.01 -4.66 3.02 -5 2 C-2 0 -2 0 0 0 Z " fill="#85DF31" transform="translate(180,123)"/>
<path d="M0 0 C0.99 0 1.98 0 3 0 C4.82421875 1.96875 4.82421875 1.96875 6.6875 4.5 C7.31011719 5.3353125 7.93273438 6.170625 8.57421875 7.03125 C9.04472656 7.6809375 9.51523437 8.330625 10 9 C9.67 9.66 9.34 10.32 9 11 C7.49403892 9.54782324 5.99537896 8.08807139 4.5 6.625 C3.6646875 5.81289062 2.829375 5.00078125 1.96875 4.1640625 C0 2 0 2 0 0 Z " fill="#90DC4C" transform="translate(48,109)"/>
<path d="M0 0 C0.66 1.32 1.32 2.64 2 4 C2.66 4 3.32 4 4 4 C3.67 5.32 3.34 6.64 3 8 C1.35 7.67 -0.3 7.34 -2 7 C-2.33 5.68 -2.66 4.36 -3 3 C-2.34 3 -1.68 3 -1 3 C-0.67 2.01 -0.34 1.02 0 0 Z " fill="#5CB60A" transform="translate(50,102)"/>
<path d="M0 0 C0 3 0 3 -2.25 5.5 C-4.43541108 7.48673735 -6.58854412 9.30304957 -9 11 C-9.66 10.67 -10.32 10.34 -11 10 C-9.54474941 8.51780033 -8.085701 7.03932861 -6.625 5.5625 C-5.81289063 4.73878906 -5.00078125 3.91507813 -4.1640625 3.06640625 C-2 1 -2 1 0 0 Z " fill="#143201" transform="translate(63,24)"/>
<path d="M0 0 C5.15464734 0.48324819 8.81550319 3.18610761 13 6 C9.98968256 6.93423645 9.13349732 7.04449911 6 6 C6 5.01 6 4.02 6 3 C3.03 2.505 3.03 2.505 0 2 C0 1.34 0 0.68 0 0 Z " fill="#95E14A" transform="translate(166,105)"/>
<path d="M0 0 C0.99 0.33 1.98 0.66 3 1 C3 2.65 3 4.3 3 6 C3.99 6.33 4.98 6.66 6 7 C6.33 7.99 6.66 8.98 7 10 C3.34683329 8.75023244 2.21934164 8.32901247 0 5 C-0.125 2.3125 -0.125 2.3125 0 0 Z " fill="#82E12B" transform="translate(20,227)"/>
<path d="M0 0 C0.66 0.33 1.32 0.66 2 1 C1.39301257 5.12751449 -0.03810791 8.3321148 -2 12 C-2.33 12 -2.66 12 -3 12 C-2.49202991 7.6822542 -1.80317221 3.96697886 0 0 Z " fill="#5B6253" transform="translate(431,210)"/>
<path d="M0 0 C0.99 0 1.98 0 3 0 C1.68315519 4.60895683 -0.15198745 8.14140235 -3 12 C-3.33 12 -3.66 12 -4 12 C-4 10.35 -4 8.7 -4 7 C-3.34 7 -2.68 7 -2 7 C-2 6.34 -2 5.68 -2 5 C-1.34 5 -0.68 5 0 5 C0 3.35 0 1.7 0 0 Z " fill="#94E34A" transform="translate(89,213)"/>
<path d="M0 0 C0.99 0 1.98 0 3 0 C1.66073876 4.01778372 -0.49134469 4.78023848 -4 7 C-4.66 7.66 -5.32 8.32 -6 9 C-6.33 7.35 -6.66 5.7 -7 4 C-5.68 4 -4.36 4 -3 4 C-3 3.34 -3 2.68 -3 2 C-2.01 2 -1.02 2 0 2 C0 1.34 0 0.68 0 0 Z " fill="#97E352" transform="translate(273,119)"/>
<path d="M0 0 C4.99162787 0.47996422 6.85035583 0.88776687 11 4 C7.37 3.67 3.74 3.34 0 3 C0 2.01 0 1.02 0 0 Z " fill="#698E4A" transform="translate(237,102)"/>
<path d="M0 0 C0.33 0 0.66 0 1 0 C0.88556397 2.0839403 0.75804453 4.16716493 0.625 6.25 C0.55539063 7.41015625 0.48578125 8.5703125 0.4140625 9.765625 C0.03751692 12.70694334 -0.4774123 14.49949011 -2 17 C-2.38063221 14.6739143 -2.71269945 12.33944736 -3 10 C-2.67 9.67 -2.34 9.34 -2 9 C-1.60851239 7.48834346 -1.26027543 5.96530368 -0.9375 4.4375 C-0.76089844 3.61121094 -0.58429687 2.78492187 -0.40234375 1.93359375 C-0.26957031 1.29550781 -0.13679688 0.65742187 0 0 Z " fill="#3A7A03" transform="translate(41,67)"/>
<path d="M0 0 C1.65 0 3.3 0 5 0 C2.45368965 2.97069541 -0.42230149 4.4775751 -4 6 C-4.66 5.67 -5.32 5.34 -6 5 C-5.67 4.01 -5.34 3.02 -5 2 C-3.35 2 -1.7 2 0 2 C0 1.34 0 0.68 0 0 Z " fill="#93E246" transform="translate(247,187)"/>
<path d="M0 0 C3.375 -0.1875 3.375 -0.1875 7 0 C7.66 0.99 8.32 1.98 9 3 C11.05003955 4.19232613 11.05003955 4.19232613 13 5 C10.34501768 6.0169313 9.30844625 6.13022151 6.640625 5.00390625 C5.85171875 4.52824219 5.0628125 4.05257812 4.25 3.5625 C3.45078125 3.08941406 2.6515625 2.61632812 1.828125 2.12890625 C1.22484375 1.75636719 0.6215625 1.38382813 0 1 C0 0.67 0 0.34 0 0 Z " fill="#5DBA0A" transform="translate(392,157)"/>
<path d="M0 0 C0.78375 0.04125 1.5675 0.0825 2.375 0.125 C-0.75121626 3.51917765 -3.19041027 5.7312718 -7.625 7.125 C-7.625 6.465 -7.625 5.805 -7.625 5.125 C-6.635 5.125 -5.645 5.125 -4.625 5.125 C-4.625 4.135 -4.625 3.145 -4.625 2.125 C-2.625 0.125 -2.625 0.125 0 0 Z " fill="#90E348" transform="translate(77.625,229.875)"/>
<path d="M0 0 C3.98175544 2.10148204 6.35039045 4.36905358 9 8 C5.41209425 7.70100785 4.21833224 7.23013399 1.6875 4.5625 C0 2 0 2 0 0 Z " fill="#8FE045" transform="translate(75,158)"/>
<path d="M0 0 C0.66 0.33 1.32 0.66 2 1 C1.3203125 2.890625 1.3203125 2.890625 0 5 C-2.3828125 6.046875 -2.3828125 6.046875 -5.125 6.75 C-6.03507812 6.99234375 -6.94515625 7.2346875 -7.8828125 7.484375 C-8.93082031 7.73960938 -8.93082031 7.73960938 -10 8 C-6.97727468 4.74475735 -3.74281699 2.38179263 0 0 Z " fill="#98E254" transform="translate(272,105)"/>
<path d="M0 0 C1.875 0.1875 1.875 0.1875 4 1 C5.25 3.5625 5.25 3.5625 6 6 C5.01 6.33 4.02 6.66 3 7 C1.5 5.75 1.5 5.75 0 4 C0 2.68 0 1.36 0 0 Z " fill="#75BF30" transform="translate(145,39)"/>
<path d="M0 0 C0 3 0 3 -2 6 C-2.66 6 -3.32 6 -4 6 C-4.28875 6.78375 -4.5775 7.5675 -4.875 8.375 C-6 11 -6 11 -8 13 C-6.93867647 6.63205883 -5.24936675 3.86795445 0 0 Z " fill="#427B06" transform="translate(195,119)"/>
<path d="M0 0 C5.445 1.485 5.445 1.485 11 3 C10.67 3.66 10.34 4.32 10 5 C3.375 4.25 3.375 4.25 0 2 C0 1.34 0 0.68 0 0 Z " fill="#C4DBB5" transform="translate(372,238)"/>
<path d="M0 0 C1.32 0.33 2.64 0.66 4 1 C1.42215154 3.64752004 -0.91648098 5.94432065 -4 8 C-4 6.35 -4 4.7 -4 3 C-3.01 2.67 -2.02 2.34 -1 2 C-0.67 1.34 -0.34 0.68 0 0 Z " fill="#96E34F" transform="translate(144,109)"/>
<path d="M0 0 C0.66 0 1.32 0 2 0 C4.29013653 3.4352048 4.17842973 4.985331 4 9 C0.06153846 5.67692308 0.06153846 5.67692308 -0.25 2.25 C-0.1675 1.5075 -0.085 0.765 0 0 Z " fill="#61C507" transform="translate(152,56)"/>
<path d="M0 0 C2 1.375 2 1.375 4 3 C4 3.66 4 4.32 4 5 C3.34 5 2.68 5 2 5 C1.67 5.66 1.34 6.32 1 7 C-0.32 5.35 -1.64 3.7 -3 2 C-2.01 2 -1.02 2 0 2 C0 1.34 0 0.68 0 0 Z " fill="#6FB829" transform="translate(143,34)"/>
<path d="M0 0 C1.60080151 4.00200378 0.29279692 7.04556236 -1 11 C-1.66 10.67 -2.32 10.34 -3 10 C-2.25 2.25 -2.25 2.25 0 0 Z " fill="#355416" transform="translate(429,211)"/>
<path d="M0 0 C1.98 0.99 1.98 0.99 4 2 C4 2.99 4 3.98 4 5 C5.32 4.67 6.64 4.34 8 4 C7.34 5.32 6.68 6.64 6 8 C4.125 7.375 4.125 7.375 2 6 C0.75 2.875 0.75 2.875 0 0 Z " fill="#89E13A" transform="translate(361,154)"/>
<path d="M0 0 C3.32382587 4.33542505 4.12018668 6.47141274 4 12 C3.67 11.01 3.34 10.02 3 9 C2.34 9 1.68 9 1 9 C0.67 6.03 0.34 3.06 0 0 Z " fill="#8FE149" transform="translate(372,145)"/>
<path d="M0 0 C-1.61992165 0.86375896 -3.24611861 1.71575854 -4.875 2.5625 C-6.23238281 3.27599609 -6.23238281 3.27599609 -7.6171875 4.00390625 C-8.40351563 4.33261719 -9.18984375 4.66132812 -10 5 C-10.66 4.67 -11.32 4.34 -12 4 C-8.00742806 -0.42034751 -5.71963172 -1.56098282 0 0 Z " fill="#4D9E05" transform="translate(218,110)"/>
<path d="M0 0 C4.43458973 1.3937282 6.87378374 3.60582235 10 7 C9.01 7.495 9.01 7.495 8 8 C7.67 7.34 7.34 6.68 7 6 C6.01 6.495 6.01 6.495 5 7 C4.34 5.68 3.68 4.36 3 3 C2.01 3 1.02 3 0 3 C0 2.01 0 1.02 0 0 Z " fill="#88BB5A" transform="translate(126,20)"/>
<path d="M0 0 C6.64615385 1.47692308 6.64615385 1.47692308 8.4375 4.125 C8.7159375 5.053125 8.7159375 5.053125 9 6 C5.06326356 4.68775452 2.77280706 3.08089673 0 0 Z " fill="#9AE053" transform="translate(58,120)"/>
<path d="M0 0 C0.66 0.33 1.32 0.66 2 1 C1.195625 1.763125 0.39125 2.52625 -0.4375 3.3125 C-3.16799024 5.79430898 -3.16799024 5.79430898 -4 9 C-4.99 9.33 -5.98 9.66 -7 10 C-6.42424336 6.64749299 -5.40693737 5.06181371 -2.9375 2.75 C-2.38964844 2.22921875 -1.84179688 1.7084375 -1.27734375 1.171875 C-0.64505859 0.59179688 -0.64505859 0.59179688 0 0 Z " fill="#70776E" transform="translate(198,108)"/>
<path d="M0 0 C0.99 0.33 1.98 0.66 3 1 C1.35 2.98 -0.3 4.96 -2 7 C-2.66 6.01 -3.32 5.02 -4 4 C-3.01 3.67 -2.02 3.34 -1 3 C-0.67 2.01 -0.34 1.02 0 0 Z " fill="#6D7C64" transform="translate(422,226)"/>
<path d="M0 0 C0.66 1.32 1.32 2.64 2 4 C0.68 5.32 -0.64 6.64 -2 8 C-2.33 7.01 -2.66 6.02 -3 5 C-1.5625 2.3125 -1.5625 2.3125 0 0 Z " fill="#A9E66C" transform="translate(352,176)"/>
<path d="M0 0 C1.98 0.495 1.98 0.495 4 1 C4.33 2.65 4.66 4.3 5 6 C2.525 5.01 2.525 5.01 0 4 C0 2.66666667 0 1.33333333 0 0 Z " fill="#5DC505" transform="translate(195,178)"/>
<path d="M0 0 C0.33 0 0.66 0 1 0 C1 2.31 1 4.62 1 7 C0.01 7.33 -0.98 7.66 -2 8 C-2.125 5.125 -2.125 5.125 -2 2 C-1.34 1.34 -0.68 0.68 0 0 Z " fill="#88DD3B" transform="translate(355,172)"/>
<path d="M0 0 C0.66 0 1.32 0 2 0 C2 0.66 2 1.32 2 2 C1.34 2 0.68 2 0 2 C0 2.66 0 3.32 0 4 C-3.37462715 3.45276317 -5.08235 2.9451 -8 1 C-6.865625 1.020625 -5.73125 1.04125 -4.5625 1.0625 C-1.18424326 1.41577477 -1.18424326 1.41577477 0 0 Z " fill="#8EE03D" transform="translate(60,149)"/>
<path d="M0 0 C0.66 0.66 1.32 1.32 2 2 C2.66 1.34 3.32 0.68 4 0 C4.33 2.97 4.66 5.94 5 9 C4.67 8.01 4.34 7.02 4 6 C3.01 5.67 2.02 5.34 1 5 C0.67 3.35 0.34 1.7 0 0 Z " fill="#74C42C" transform="translate(265,128)"/>
<path d="M0 0 C3.79588866 0.54226981 5.47211993 2.20127563 8 5 C7.67 5.99 7.34 6.98 7 8 C5.83035398 6.8572081 4.66435444 5.71068285 3.5 4.5625 C2.8503125 3.92441406 2.200625 3.28632813 1.53125 2.62890625 C0 1 0 1 0 0 Z " fill="#8EDC45" transform="translate(190,178)"/>
<path d="M0 0 C3.53600465 1.91135386 5.78972846 3.62642766 8 7 C4.21388773 6.45912682 2.44599233 4.88277668 0 2 C0 1.34 0 0.68 0 0 Z " fill="#9CAA92" transform="translate(416,163)"/>
<path d="M0 0 C1.65 0 3.3 0 5 0 C5.33 1.98 5.66 3.96 6 6 C3.97945196 4.35830472 1.97956942 2.69088222 0 1 C0 0.67 0 0.34 0 0 Z " fill="#86DF37" transform="translate(288,113)"/>
<path d="M0 0 C-0.625 1.9375 -0.625 1.9375 -2 4 C-5.125 4.75 -5.125 4.75 -8 5 C-3.16129032 0 -3.16129032 0 0 0 Z " fill="#9BE350" transform="translate(301,25)"/>
<path d="M0 0 C0 0.99 0 1.98 0 3 C-3.3 2.34 -6.6 1.68 -10 1 C-10 0.67 -10 0.34 -10 0 C-6.33694766 -0.74926071 -3.57644848 -1.2380014 0 0 Z " fill="#407F07" transform="translate(126,20)"/>
<path d="M0 0 C0 0.66 0 1.32 0 2 C-3.3 2.33 -6.6 2.66 -10 3 C-6.88378718 -0.11621282 -4.21175599 -0.11383124 0 0 Z " fill="#1D3B02" transform="translate(87,15)"/>
<path d="M0 0 C0.33 0 0.66 0 1 0 C1.25 7.625 1.25 7.625 -1 11 C-1.33 9.02 -1.66 7.04 -2 5 C-1.34 5 -0.68 5 0 5 C0 3.35 0 1.7 0 0 Z " fill="#90E044" transform="translate(93,202)"/>
<path d="M0 0 C1.2380014 3.57644848 0.74926071 6.33694766 0 10 C-1.85776765 6.86501708 -2.20140476 4.62528568 -2 1 C-1.34 0.67 -0.68 0.34 0 0 Z " fill="#70D118" transform="translate(270,154)"/>
<path d="M0 0 C1.13643966 3.40931897 0.86747764 4.00335456 -0.4375 7.1875 C-0.86869141 8.26064453 -0.86869141 8.26064453 -1.30859375 9.35546875 C-1.53675781 9.89816406 -1.76492187 10.44085938 -2 11 C-2.33 11 -2.66 11 -3 11 C-2.53199289 6.94393835 -2.12046792 3.53411321 0 0 Z " fill="#95DF51" transform="translate(156,86)"/>
<path d="M0 0 C1 2 1 2 0.375 4.0625 C-1 6 -1 6 -3.625 6.75 C-4.800625 6.87375 -4.800625 6.87375 -6 7 C-4.02 4.69 -2.04 2.38 0 0 Z " fill="#93E146" transform="translate(292,30)"/>
<path d="M0 0 C-3.44450737 2.29633824 -5.93812283 2.54016485 -10 3 C-7.29536552 -0.8183075 -4.37912428 -0.24787496 0 0 Z " fill="#9FE560" transform="translate(66,239)"/>
<path d="M0 0 C1.9451 2.91765 2.45276317 4.62537285 3 8 C2.01 8.495 2.01 8.495 1 9 C-1.125 2.25 -1.125 2.25 0 0 Z " fill="#6C7668" transform="translate(430,179)"/>
<path d="M0 0 C2 3.75 2 3.75 2 6 C0.68 6.33 -0.64 6.66 -2 7 C-1.125 1.125 -1.125 1.125 0 0 Z " fill="#87DE32" transform="translate(10,170)"/>
<path d="M0 0 C1.65 0 3.3 0 5 0 C5 0.66 5 1.32 5 2 C3.37373596 3.38232443 1.7074998 4.71937515 0 6 C-1 3 -1 3 0 0 Z " fill="#83CF46" transform="translate(186,116)"/>
<path d="M0 0 C3.57104439 1.87949705 5.54744301 3.17053157 7 7 C4.0625 5.75 4.0625 5.75 1 4 C0.125 1.8125 0.125 1.8125 0 0 Z " fill="#96C667" transform="translate(136,27)"/>
</svg>
